/* XPM */
static char *_f95a636f68a4567abbbf61e3102e48dQ5ySATZg0wXdN5eK[] = {
/* columns rows colors chars-per-pixel */
"100 100 4 1 ",
"  c #FF000000",
". c #FFBA85",
"X c #FEB984",
"o c #CF956E",
/* pixels */
"                                                                                                    ",
"                                                                                                    ",
"                                                                                                    ",
"                                                                                                    ",
"                                                                                                    ",
"                                                                                                    ",
"                                                                                                    ",
"                                                                                                    ",
"                                                                                                    ",
"                                                                                                    ",
"                                                                                                    ",
"                                                                                                    ",
"                                                                                                    ",
"                                                                                                    ",
"                                                                                                    ",
"                                                                                                    ",
"                                                                                                    ",
"                                                                                                    ",
"                                                                                                    ",
"                                                                                                    ",
"                                                                                                    ",
"                                                                                                    ",
"                                                                                                    ",
"                                                                                                    ",
"                                                                                                    ",
"                                                                                                    ",
"                                                                                                    ",
"                                                                                                    ",
"                                                                                                    ",
"                                                                                                    ",
"                                                                                                    ",
"                                                                                                    ",
"                                                                                                    ",
"                                                                                                    ",
"                                                                                                    ",
"                                                                                                    ",
"                                                                                                    ",
"                                                                                                    ",
"                                                                                                    ",
"                     ... .                                                                          ",
"                   ..........    .                                                                  ",
"                  .................. .                                                              ",
"               . .......................                                                            ",
"               .............................                                                        ",
"             ................................. .                                                    ",
"            ....................................... .. .                                            ",
"        . ................................................ .                                        ",
"       ........................................................                                     ",
"     .............................................................                                  ",
"    ...................................................................  .                          ",
"  ............................................................................                      ",
" ...................................................................................... .  X        ",
"..............................................................................................      ",
".............................................................................................X....  ",
"..............................................................................................X.....",
"...............................................................................................X....",
"................................................................................................X...",
".................................................................................................X..",
"..................................................................................................X.",
"...................................................................................................X",
"....................................................................................................",
"....................................................................................................",
"....................................................................................................",
"....................................................................................................",
"....................................................................................................",
"....................................................................................................",
"....................................................................................................",
"ooo.................................................................................................",
"ooooo.ooo.o.........................................................................................",
"ooooooooooooo.......................................................................................",
"ooooooooooooooooo...................................................................................",
"ooooooooooooooooooo.o...............................................................................",
"ooooooooooooooooooooooooooooo.......................................................................",
"ooooooooooooooooooooooooooooooo.o...................................................................",
"ooooooooooooooooooooooooooooooooooooo...............................................................",
"ooooooooooooooooooooooooooooooooooooooo.............................................................",
"ooooooooooooooooooooooooooooooooooooooooo.oo..o.....................................................",
"ooooooooooooooooooooooooooooooooooooooooooooooooooo.................................................",
"ooooooooooooooooooooooooooooooooooooooooooooooooooooo.ooooo.........................................",
"ooooooooooooooooooooooooooooooooooooooooooooooooooooooooooooo.o.....................................",
"ooooooooooooooooooooooooooooooooooooooooooooooooooooooooooooooooo.o.................................",
"ooooooooooooooooooooooooooooooooooooooooooooooooooooooooooooooooooooooooo.o.........................",
"oooooooooooooooooooooooooooooooooooooooooooooooooooooooooooooooooooooooooooooooo....................",
"ooooooooooooooooooooooooooooooooooooooooooooooooooooooooooooooooooooooooooooooooooooo.oo............",
"oooooooooooooooooooooooooooooooooooooooooooooooooooooooooooooooooooooooooooooooooooooooooo.o........",
"oooooooooooooooooooooooooooooooooooooooooooooooooooooooooooooooooooooooooooooooooooooooooooooooo....",
"oooooooooooooooooooooooooooooooooooooooooooooooooooooooooooooooooooooooooooooooooooooooooooooooooooo",
"oooooooooooooooooooooooooooooooooooooooooooooooooooooooooooooooooooooooooooooooooooooooooooooooooooo",
"oooooooooooooooooooooooooooooooooooooooooooooooooooooooooooooooooooooooooooooooooooooooooooooooooooo",
"oooooooooooooooooooooooooooooooooooooooooooooooooooooooooooooooooooooooooooooooooooooooooooooooooooo",
"oooooooooooooooooooooooooooooooooooooooooooooooooooooooooooooooooooooooooooooooooooooooooooooooooooo",
"oooooooooooooooooooooooooooooooooooooooooooooooooooooooooooooooooooooooooooooooooooooooooooooooooooo",
"oooooooooooooooooooooooooooooooooooooooooooooooooooooooooooooooooooooooooooooooooooooooooooooooooooo",
"o..ooooooooooooooooooooooooooooooooooooooooooooooooooooooooooooooooooooooooooooooooooooooooooooooooo",
" .....oo.ooooooooooooooooooooooooooooooooooooooooooooooooooooooooooooooooooooooooooooooooooooooooooo",
"     . ... .o..ooooooooooooooooooooooooooooooooooooooooooooooooooooooooooooooooooooooooooooooooooooo",
"             .....oooooooooooooooooooooooooooooooooooooooooooooooooooooooooooooooooooooooooooooooooo",
"                 . .oo.oo.oooooooooooooooooooooooooooooooooooooooooooooooooooooooooooooooooooooooooo",
"                     ........ooooooooooooooooooooooooooooooooooooooooooooooooooooooooooooooooooooooo",
"                         .  ....oooooooooooooooooooooooooooooooooooooooooooooooooooooooooooooooooooo"
};
