/* XPM */
static char *_9c376f8574b4728d27e07587e6b3241394D9j5jJl6uV4zv[] = {
/* columns rows colors chars-per-pixel */
"100 100 7 1 ",
"  c #FF000000",
". c #FEE8D6",
"X c #FFBA85",
"o c #CF956E",
"O c #FEC497",
"+ c #FEBD8B",
"@ c #D39870",
/* pixels */
"                                                                                                    ",
"                                                                                                    ",
"                                                                                                    ",
"                                                                                                    ",
"                                                                                                    ",
"                                                                                                    ",
"                ..                                                                                  ",
"         XXXXXXX                                                                                    ",
"         XXXXXXXXXX                                                                                 ",
"        XXooXXXXXXXXXXX                                                                             ",
"       XooooXXXXXXXXXXXXXXX                                                                         ",
"       ooooooXXXXXXXXXXXXXXXXX                                                                      ",
"       ooooooXXXXXXXXXXXXXXXXXXXXX                                                                  ",
"      XoooooooXXXXXXXXXXXXXXXXXXXXXXXX                                                              ",
"     XXooooooooXXXXXXXXXXXXXXXXXXXXXXXXXX                                                           ",
"      oooooooooXXXXXXXXXXXXXXXXXXXXXXXXXXXX                                                         ",
"    XooooooooooooXXXXXXXXXXXXXXXXXXXXXXXXXXXXXX X                                                   ",
"    XooooooooooooXXXXXXXXXXXXXXXXXXXXXXXXXXXXXXXXXXXX                                               ",
"  XXooooooooooooooXXXXXXXXXXXXXXXXXXXXXXXXXXXXXXXXXXXXXX                                            ",
"  XooooooooooooooooXXXXXXXXXXXXXXXXXXXXXXXXXXXXXXXXXXXXXX                                           ",
"  XooooooooooooooooXXXXXXXXXXXXXXXXXXXXXXXXXXXXXXXXXXXXXX                                           ",
" XooooooooooooooooooXXXXXXXXXXXXXXXXXXXXXXXXXXXXXXXXXXXXXX                                          ",
"  ooooooooooooooooooXXXXXXXXXXXXXXXXXXXXXXXXXXXXXXXXXXXXXX                                          ",
"XXoooooooooooooooooooXXXXXXXXXXXXXXXXXXXXXXXXXXXXXXXXXXXXXX                                         ",
"XoooooooooooooooooooooXXXXXXXXXXXXXXXXXXXXXXXXXXXXXXXXXXXXXX                                        ",
"ooooooooooooooooooooooXXXXXXXXXXXXXXXXXXXXXXXXXXXXXXXXXXXXXX                                        ",
"XooooooooooooooooooooooXXXXXXXXXXXXXXXXXXXXXXXXXXXXXXXXXXXXXX                                       ",
"oooooooooooooooooooooooXXXXXXXXXXXXXXXXXXXXXXXXXXXXXXXXXXXXXXXX                                     ",
"oooooooooooooooooooooooooXXXXXXXXXXXXXXXXXXXXXXXXXXXXXXXXXXXXXX                                     ",
"ooooooooooooooooooooooooooXXXXXXXXXXXXXXXXXXXXXXXXXXXXXXXXXXXXXX                                    ",
"ooooooooooooooooooooooooooXXXXXXXXXXXXXXXXXXXXXXXXXXXXXXXXXXXXXX                                    ",
"oooooooooooooooooooooooooooXXXXXXXXXXXXXXXXXXXXXXXXXXXXXXXXXXXXXX                                   ",
"oooooooooooooooooooooooooooXXXXXXXXXXXXXXXXXXXXXXXXXXXXXXXXXXXXXX                                   ",
"ooooooooooooooooooooooooooooXXXXXXXXXXXXXXXXXXXXXXXXXXXXXXXXXXXXXX                                  ",
"ooooooooooooooooooooooooooooXXXXXXXXXXXXXXXXXXXXXXXXXXXXXXXXXXXXXXX                                 ",
"oooooooooooooooooooooooooooooXXXXXXXXXXXXXXXXXXXXXXXXXXXXXXXXXXXXXX                                 ",
"ooooooooooooooooooooooooooooooXXXXXXXXXXXXXXXXXXXXXXXXXXXXXXXXXXXXXX                                ",
"ooooooooooooooooooooooooooooooXXXXXXXXXXXXXXXXXXXXXXXXXXXXXXXXXXXXXX                                ",
"XooooooooooooooooooooooooooooooXXXXXXXXXXXXXXXXXXXXXXXXXXXXXXXXXXXXXX                               ",
"XooooooooooooooooooooooooooooooXXXXXXXXXXXXXXXXXXXXXXXXXXXXXXXXXXXXXX                               ",
" XooooooooooooooooooooooooooooooXXXXXXXXXXXXXXXXXXXXXXXXXXXXXXXXXXXXXX                              ",
" XoooooooooooooooooooooooooooooooXXXXXXXXXXXXXXXXXXXXXXXXXXXXXXXXXXXXXX                             ",
"  XooooooooooooooooooooooooooooooXXXXXXXXXXXXXXXXXXXXXXXXXXXXXXXXXXXXXX                             ",
"  XXooooooooooooooooooooooooooooooXXXXXXXXXXXXXXXXXXXXXXXXXXXXXXXXXXXXXX                            ",
"   XoooooooooooooooooooooooooooooooXXXXXXXXXXXXXXXXXXXXXXXXXXXXXXXXXXXXXXX                          ",
"    XoooooooooooooooooooooooooooooooXXXXXXXXXXXXXXXXXXXXXXXXXXXXXXXXXXXXXX                          ",
"    XooooooooooooooooooooooooooooooooXXXXXXXXXXXXXXXXXXXXXXXXXXXXXXXXXXXXXX                         ",
"     XoooooooooooooooooooooooooooooooXXXXXXXXXXXXXXXXXXXXXXXXXXXXXXXXXXXXXX                         ",
"     XXoooooooooooooooooooooooooooooooXXXXXXXXXXXXXXXXXXXXXXXXXXXXXXXXXXXXXX                        ",
"      XXooooooooooooooooooooooooooooooXXXXXXXXXXXXXXXXXXXXXXXXXXXXXXXXXXXXXX                        ",
"        XooooooooooooooooooooooooooooooXXXXXXXXXXXXXXXXXXXXXXXXXXXXXXXXXXXXXX                       ",
"        XooooooooooooooooooooooooooooooXXXXXXXXXXXXXXXXXXXXXXXXXXXXXXXXXXXXXXX                      ",
"         XooooooooooooooooooooooooooooooXXXXXXXXXXXXXXXXXXXXXXXXXXXXXXXXXXXXXX                      ",
"         XXooooooooooooooooooooooooooooooXXXXXXXXXXXXXXXXXXXXXXXXXXXXXXXXXXXXXX                     ",
"          XooooooooooooooooooooooooooooooXXXXXXXXXXXXXXXXXXXXXXXXXXXXXXXXXXXXXX                     ",
"           XooooooooooooooooooooooooooooooXXXXXXXXXXXXXXXXXXXXXXXXXXXXXXXXXXXXXX                    ",
"           XooooooooooooooooooooooooooooooXXXXXXXXXXXXXXXXXXXXXXXXXXXXXXXXXXXXXX                    ",
"            XooooooooooooooooooooooooooooooXXXXXXXXXXXXXXXXXXXXXXXXXXXXXXXXXXXXXX                   ",
"            XooooooooooooooooooooooooooooooXXXXXXXXXXXXXXXXXXXXXXXXXXXXXXXXXXXXXXX                  ",
"             XooooooooooooooooooooooooooooooXXXXXXXXXXXXXXXXXXXXXXXXXXXXXXXXXXXXXX                  ",
"             XXooooooooooooooooooooooooooooooXXXXXXXXXXXXXXXXXXXXXXXXXXXXXXXXXXXXXX                 ",
"              XooooooooooooooooooooooooooooooXXXXXXXXXXXXXXXXXXXXXXXXXXXXXXXXXXXXXXX                ",
"               XXooooooooooooooooooooooooooooooXXXXXXXXXXXXXXXXXXXXXXXXXXXXXXXXXXXXXX               ",
"               XXoooooooooooooooooooooooooooooooXXXXXXXXXXXXXXXXXXXXXXXXXXXXXXXXXXXXXX              ",
"                 XooooooooooooooooooooooooooooooXXXXXXXXXXXXXXXXXXXXXXXXXXXXXXXXXXXXXX              ",
"                 XXooooooooooooooooooooooooooooooXXXXXXXXXXXXXXXXXXXXXXXXXXXXXXXXXXXXXX             ",
"                  XooooooooooooooooooooooooooooooXXXXXXXXXXXXXXXXXXXXXXXXXXXXXXXXXXXXXX             ",
"                   XooooooooooooooooooooooooooooooXXXXXXXXXXXXXXXXXXXXXXXXXXXXXXXXXXXXXX            ",
"                   XooooooooooooooooooooooooooooooXXXXXXXXXXXXXXXXXXXXXXXXXXXXXXXXXXXXXXX           ",
"                    XoooooooooooooooooooooooooooooooXXXXXXXXXXXXXXXXXXXXXXXXXXXXXXXXXXXOXX          ",
"                    XXoooooooooooooooooooooooooooooooXXXXXXXXXXXXXXXXXXXXXXXXXXXXXXXX+XXXXX         ",
"                     XoooooooooooooooooooooooooooooooXXXXXXXXXXXXXXXXXXXXXXXXXXXXXXXXXXXXXXX        ",
"                      XoooooooooooooooooooooooooooooooXXXXXXXXXXXXXXXXXXXXXXXXXXXXXXXXXXXXXXX       ",
"                      XoooooooooooooooooooooooooooooooXXXXXXXXXXXXXXXXXXXXXXXXXXXXXXXXXXXXXXX       ",
"                       XoooooooooooooooooooooooooooooooXXXXXXXXXXXXXXXXXXXXXXXXXXXXXXXXXXXXXXX      ",
"                       XooooooooooooooooooooooooooooooooXXXXXXXXXXXXXXXXXXXXXXXXXXXXXXXXXXXXXXX     ",
"                        XoooooooooooooooooooooooooooooooXXXXXXXXXXXXXXXXXXXXXXXXXXXXXXXXXXXXXXXX    ",
"                        XXoooooooooooooooooooooooooooooooXXXXXXXXXXXXXXXXXXXXXXXXXXXXXXXXXXXXXXX    ",
"                         XoooooooooooooooooooooooooooooooXXXXXXXXXXXXXXXXXXXXXXXXXXXXXXXXXXXXXXX    ",
"                          XoooooooooooooooooooooooooooooooXXXXXXXXXXXXXXXXXXXXXXXXXXXXXXXXXXXXXX    ",
"                          XoooooooooooooooooooooooooooooooXXXXXXXXXXXXXXXXXXXXXXXXXXXXXXXXXXXXXX    ",
"                           XooooooooooooooooooooooooooooooooXXXXXXXXXXXXXXXXXXXXXXXXXXXXXXXXXXXX    ",
"                           XoooooooooooooooooooooooooooooooooXXXXXXXXXXXXXXXXXXXXXXXXXXXXXXXXXXX    ",
"                            XooooooooooooooooooooooooooooooooXXXXXXXXXXXXXXXXXXXXXXXXXXXXXXXXXXX    ",
"                            XXooooooooooooooooooooooooooooooooXXXXXXXXXXXXXXXXXXXXXXXXXXXXXXXXXX    ",
"                             Xooooooooooooooooooooooooooooo@oooXXXXXXXXXXXXXXXXXXXXXXXXXXXXXXXXX    ",
"                              XooooooooooooooooooooooooooooooooXXXXXXXXXXXXXXXXXXXXXXXXXXXXXXXXX    ",
"                              XoooooooooooooooooooooooooooooooooXXXXXXXXXXXXXXXXXXXXXXXXXXXXXXXX    ",
"                               XoooooooooooooooooooooooooooooooooXXXXXXXXXXXXXXXXXXXXXXXXXXXXXXX    ",
"                               XXooooooooooooooooooo@oooooooooooooXXXXXXXXXXXXXXXXXXXXXXXXXXXXXX    ",
"                                XoooooooooooooooooooooooooooooooooXXXXXXXXXXXXXXXXXXXXXXXXXXXXXX    ",
"                                 XoooooooooooooooooooooooooooooooooXXXXXXXXXXXXXXXXXXXXXXXXXXXXX    ",
"                                 XXoooooooooooooooooooooooooooooooooXXXXXXXXXXXXXXXXXXXXXXXXXXXX    ",
"                                  XXoooooooooooooooooooooooooooooooooXXXXXXXXXXXXXXXXXXXXXXXXXXX    ",
"                                   XXooooooooooooooooooooooooooooooooXXXXXXXXXXXXXXXXXXXXXXXXXXX    ",
"                                    XoooooooooooooooooooooooooooooooooXXXXXXXXXXXXXXXXXXXXXXXXXX    ",
"                                     XoooooooooooooooooooooooooooooooooXXXXXXXXXXXXXXXXXXXXXXXXX    ",
"                                     XooooooooooooooooooooooooooooooooooXXXXXXXXXXXXXXXXXXXXXXXX    ",
"                                     XXoooooooooooooooooooooooooooooooooXXXXXXXXXXXXXXXXXXXXXXXX    ",
"                                      XooooooooooooooooooooooooooooooooooXXXXXXXXXXXXXXXXXXXXXXX    "
};
