/* XPM */
static char *ac3d1dbf48e847dcd06c54649a85279cFhGFy7qwjL4blAy9[] = {
/* columns rows colors chars-per-pixel */
"100 100 5 1 ",
"  c #FF000000",
". c #FFBA85",
"X c #CF956E",
"o c #FEEDE0",
"O c black",
/* pixels */
"                                                                                                    ",
"                                                                                                    ",
"                                                                                                    ",
"                                                                                                    ",
"                                                                                                    ",
"                                                                                                    ",
"                                                                                                    ",
"                                            ...                                                     ",
"                                         ........                                                   ",
"                                        .XXXXX.... o                                                ",
"                                       .XXXXXX..... o                                               ",
"                                      .XXXXXXX...... o                                              ",
"                                    .XXXXXXXXX.......                                               ",
"                                 ...XXXXXXXXXX........                                              ",
"                                .XXXXXXXXXXXXX.........                                             ",
"                               .XXXXXXXXXXXXXX..........                                            ",
"                             ..XXXXXXXXXXXXXXX...........                                           ",
"                            .XXXXXXXXXXXXXXXXXX...........                                          ",
"                           .XXXXXXXXXXXXXXXXXXX............                                         ",
"                         ..XXXXXXXXXXXXXXXXXXXX.............                                        ",
"                        .XXXXXXXXXXXXXXXXXXXXXX..............                                       ",
"                       .XXXXXXXXXXXXXXXXXXXXXXX...............                                      ",
"                      .XXXXXXXXXXXXXXXXXXXXXXXX................                                     ",
"                     .XXXXXXXXXXXXXXXXXXXXXXXXX.................                                    ",
"                     .XXXXXXXXXXXXXXXXXXXXXXXXX..................                                   ",
"                     .XXXXXXXXXXXXXXXXXXXXXXXXX...................                                  ",
"                     .XXXXXXXXXXXXXXXXXXXXXXXXX....................                                 ",
"                     .XXXXXXXXXXXXXXXXXXXXXXXXX.....................                                ",
"                     .XXXXXXXXXXXXXXXXXXXXXXXXX......................                               ",
"                     .XXXXXXXXXXXXXXXXXXXXXXXXX......................                               ",
"                     .XXXXXXXXXXXXXXXXXXXXXXXXX.......................                              ",
"                     .XXXXXXXXXXXXXXXXXXXXXXXXX........................                             ",
"                     .XXXXXXXXXXXXXXXXXXXXXXXXXX........................                            ",
"                     .XXXXXXXXXXXXXXXXXXXXXXXXXX.........................                           ",
"                     .XXXXXXXXXXXXXXXXXXXXXXXXXX...........................                         ",
"                     .XXXXXXXXXXXXXXXXXXXXXXXXXX............................                        ",
"                     .XXXXXXXXXXXXXXXXXXXXXXXXXX.............................                       ",
"                     .XXXXXXXXXXXXXXXXXXXXXXXXXX..............................                      ",
"                     .XXXXXXXXXXXXXXXXXXXXXXXXXX...............................                     ",
"                     .XXXXXXXXXXXXXXXXXXXXXXXXXX................................                    ",
"                     .XXXXXXXXXXXXXXXXXXXXXXXXXX................................                    ",
"                     .XXXXXXXXXXXXXXXXXXXXXXXXXX................................                    ",
"                     ..XXXXXXXXXXXXXXXXXXXXXXXXX................................                    ",
"                      .XXXXXXXXXXXXXXXXXXXXXXXXX................................                    ",
"                      .XXXXXXXXXXXXXXXXXXXXXXXXX................................                    ",
"                      .XXXXXXXXXXXXXXXXXXXXXXXXX................................                    ",
"                      .XXXXXXXXXXXXXXXXXXXXXXXXX................................                    ",
"                      .XXXXXXXXXXXXXXXXXXXXXXXXX................................                    ",
"                      .XXXXXXXXXXXXXXXXXXXXXXXXX................................                    ",
"                      .XXXXXXXXXXXXXXXXXXXXXXXXX................................                    ",
"                      .XXXXXXXXXXXXXXXXXXXXXXXXX.................................                   ",
"                      .XXXXXXXXXXXXXXXXXXXXXXXXXX................................                   ",
"                      .XXXXXXXXXXXXXXXXXXXXXXXXXX................................                   ",
"                      .XXXXXXXXXXXXXXXXXXXXXXXXXX................................                   ",
"                      .XXXXXXXXXXXXXXXXXXXXXXXXXX................................                   ",
"                      .XXXXXXXXXXXXXXXXXXXXXXXXXX................................                   ",
"                      .XXXXXXXXXXXXXXXXXXXXXXXXXX................................                   ",
"                      .XXXXXXXXXXXXXXXXXXXXXXXXXX................................                   ",
"                      ..XXXXXXXXXXXXXXXXXXXXXXXXX................................                   ",
"                       .XXXXXXXXXXXXXXXXXXXXXXXXX................................                   ",
"                       .XXXXXXXXXXXXXXXXXXXXXXXXX................................                   ",
"                       .XXXXXXXXXXXXXXXXXXXXXXXXX................................                   ",
"                       .XXXXXXXXXXXXXXXXXXXXXXXXX................................                   ",
"                       .XXXXXXXXXXXXXXXXXXXXXXXXX................................                   ",
"                       .XXXXXXXXXXXXXXXXXXXXXXXXX................................                   ",
"                       .XXXXXXXXXXXXXXXXXXXXXXXXX................................                   ",
"                       .XXXXXXXXXXXXXXXXXXXXXXXXX................................                   ",
"                       .XXXXXXXXXXXXXXXXXXXXXXXXX................................                   ",
"                       .XXXXXXXXXXXXXXXXXXXXXXXXX................................                   ",
"                       .XXXXXXXXXXXXXXXXXXXXXXXXX................................                   ",
"                       .XXXXXXXXXXXXXXXXXXXXXXXXX.................................                  ",
"                       .XXXXXXXXXXXXXXXXXXXXXXXXX.................................                  ",
"                       .XXXXXXXXXXXXXXXXXXXXXXXXXX................................                  ",
"                       .XXXXXXXXXXXXXXXXXXXXXXXXXX................................                  ",
"                       .XXXXXXXXXXXXXXXXXXXXXXXXXX................................                  ",
"                       .XXXXXXXXXXXXXXXXXXXXXXXXXX................................                  ",
"                       .XXXXXXXXXXXXXXXXXXXXXXXXXX................................                  ",
"                       .XXXXXXXXXXXXXXXXXXXXXXXXXX................................                  ",
"                       .XXXXXXXXXXXXXXXXXXXXXXXXXX................................                  ",
"                       .XXXXXXXXXXXXXXXXXXXXXXXXXX................................                  ",
"                       .XXXXXXXXXXXXXXXXXXXXXXXXXX................................                  ",
"                       .XXXXXXXXXXXXXXXXXXXXXXXXXXX...............................                  ",
"                       .XXXXXXXXXXXXXXXXXXXXXXXXXXX...............................                  ",
"                       .XXXXXXXXXXXXXXXXXXXXXXXXXXX...............................                  ",
"                       .XXXXXXXXXXXXXXXXXXXXXXXXXXX...............................                  ",
"                       .XXXXXXXXXXXXXXXXXXXXXXXXXXX...............................                  ",
"                       .XXXXXXXXXXXXXXXXXXXXXXXXXXX...............................                  ",
"                       .XXXXXXXXXXXXXXXXXXXXXXXXXXX...............................                  ",
"                       .XXXXXXXXXXXXXXXXXXXXXXXXXXX...............................                  ",
"                       .XXXXXXXXXXXXXXXXXXXXXXXXXXX...............................                  ",
"                       .XXXXXXXXXXXXXXXXXXXXXXXXXXX................................                 ",
"                       .XXXXXXXXXXXXXXXXXXXXXXXXXXX................................                 ",
"                       .XXXXXXXXXXXXXXXXXXXXXXXXXXX................................                 ",
"                       ..XXXXXXXXXXXXXXXXXXXXXXXXXX................................                 ",
"                        .XXXXXXXXXXXXXXXXXXXXXXXXXX................................                 ",
"                        .XXXXXXXXXXXXXXXXXXXXXXXXXX................................                 ",
"                        .XXXXXXXXXXXXXXXXXXXXXXXXXXX...............................                 ",
"                        .XXXXXXXXXXXXXXXXXXXXXXXXXXX...............................                 ",
"                        .XXXXXXXXXXXXXXXXXXXXXXXXXXX...............................                 ",
"                        .XXXXXXXXXXXXXXXXXXXXXXXXXXX...............................                 "
};
