/* XPM */
static char *f0d2377d50124b3ec8b32eeeea068e68wXX7LWUWxTOKmf7N[] = {
/* columns rows colors chars-per-pixel */
"100 100 9 1 ",
"  c #FF000000",
". c #FFBA85",
"X c #CF956E",
"o c #FFBA84",
"O c #FEB984",
"+ c #FEBA86",
"@ c #CE946E",
"# c #CF956D",
"$ c #CD946E",
/* pixels */
"                                                                                                    ",
"                                                                                                    ",
"                                                                                                    ",
"                                                                                                    ",
"                                                                                                    ",
"                                                                                                    ",
"                                                                                                    ",
"                                                                                                    ",
"                                                                                                    ",
"                                                                                                    ",
"                                                                                                    ",
"                                                                                                    ",
"                                                                                                    ",
"                                                                                                    ",
"                                                                                                    ",
"                                                                                                    ",
"                                                                                                    ",
"                                                                                                    ",
"                                                                                                    ",
"                                                                                                    ",
"                                                                                                    ",
"                                                                                                    ",
"                                                                                                    ",
"                                                                                                    ",
"                                                                                                    ",
"                   ...                                                                              ",
"               .........                                                                            ",
"             ...........                                                                            ",
"          .................                                                                         ",
"    ......................... .                                                                     ",
".................................                                                                   ",
"..................................                                                                  ",
"...................................                                                                 ",
"......................................                                                              ",
"........................................                                                            ",
".........................................                                                           ",
"..........................................                                                          ",
".............................................                                                       ",
"..............................................                                                      ",
"..................................................                                                  ",
"...................................................                                                 ",
".....................................................                                               ",
".......................................................                                             ",
".........................................................                                           ",
"..........................................................                                          ",
"............................................................                                        ",
"..............................................................                                      ",
"................................................................                                    ",
"....................................................................                                ",
".....................................................................                               ",
"X......................................................................                             ",
"XX.......................................................................                           ",
"XXXX.........................................................................                       ",
"XXXXXX...................................................................o......                    ",
"XXXXXXXX........................................................................ .                  ",
"XXXXXXXXX...........................................................................O               ",
"XXXXXXXXXXXX........................................................................o.              ",
"XXXXXXXXXXXXX...........................................................................            ",
"XXXXXXXXXXXXXXXXX.....................................................................O...          ",
"XXXXXXXXXXXXXXXXXXX.........................................................................        ",
"XXXXXXXXXXXXXXXXXXXX...................................................................o......      ",
"XXXXXXXXXXXXXXXXXXXXXX.................................................................o........    ",
"XXXXXXXXXXXXXXXXXXXXXXXX..........................................................................  ",
"XXXXXXXXXXXXXXXXXXXXXXXXXX..........................................................................",
"XXXXXXXXXXXXXXXXXXXXXXXXXXX.........................................................................",
"XXXXXXXXXXXXXXXXXXXXXXXXXXXXX.............................................................o.........",
"XXXXXXXXXXXXXXXXXXXXXXXXXXXXXXX...........................................................O.........",
"XXXXXXXXXXXXXXXXXXXXXXXXXXXXXXXX..X.................................................................",
"XXXXXXXXXXXXXXXXXXXXXXXXXXXXXXXXXXXX................................................................",
"XXXXXXXXXXXXXXXXXXXXXXXXXXXXXXXXXXXXXX..............................................................",
"XXXXXXXXXXXXXXXXXXXXXXXXXXXXXXXXXXXXXXXX............................................................",
"XXXXXXXXXXXXXXXXXXXXXXXXXXXXXXXXXXXXXXXXXXXX.................................................o......",
"XXXXXXXXXXXXXXXXXXXXXXXXXXXXXXXXXXXXXXXXXXXXX.......................................................",
"XXXXXXXXXXXXXXXXXXXXXXXXXXXXXXXXXXXXXXXXXXXXXX......................................................",
"XXXXXXXXXXXXXXXXXXXXXXXXXXXXXXXXXXXXXXXXXXXXXXXXX...................................................",
"XXXXXXXXXXXXXXXXXXXXXXXXXXXXXXXXXXXXXXXXXXXXXXXXXXX.................................................",
"XXXXXXXXXXXXXXXXXXXXXXXXXXXXXXXXXXXXXXXXXXXXXXXXXXX.................................................",
"XXXXXXXXXXXXXXXXXXXXXXXXXXXXXXXXXXXXXXXXXXXXXXXXXXXXX..X.....................................O......",
"XXXXXXXXXXXXXXXXXXXXXXXXXXXXXXXXXXXXXXXXXXXXXXXXXXXXXXXXX...........................................",
".XXXXXXXXXXXXXXXXXXXXXXXXXXXXXXXXXXXXXXXXXXXXXXXXXXXXXXXXXXX............................+...........",
" ..XXXXXXXXXXXXXXXXXXXXXXXXXXXXXXXXXXXXXXXXXXXXXXXXXXXXXXXXXX...........................O...........",
"  ...XXXXXXXXXXXXXXXXXXXXXXXXXXXXXXXXXXXXXXXXXXXXXXXXXXXXXXXXXXXX...................................",
"    ..XX.XXXXXXXXXXXXXXXXXXXXXXXXXXXXXXXXXXXXXXXXXXXXXXXXXXXXXXXX.X.................O...............",
"      ...XXXXXXXXXXXXXXXXXXXXXXXXXXXXXXXXXXXXXXXXXXXXXXXXXXXXXXXXXXX................................",
"        . ..XXXXXXXXXXXXXXXXXXXXXXXXXXXXXXXXXXXXXXXXXXXXXXXXXXXXXXXXXX...........+..................",
"          . ..XXXXXXXXXXXXXXXXXXXXXXXXXXXXXXXXXXXXXXXXXXXXXXXXXXXXXXXXXXXX.....O....................",
"             ...XXXXXXXXXXXXXXXXXXXXXXXXXXXXXXXXXXXXXXXXXXXXXXXXXXXXXXXXXXXXo.......................",
"               ..XXXXXXXXXXXXXXXXXXXXXXXXXXXXXXXXXXXXXXXXXXXXXXXXXXXXXXXXXXXXX......................",
"                 ..XXXXXXXXXXXXXXXXXXXXXXXXXXXXXXXXXXXXXXXXXXXXXXXXXXXXXXXXXXXXXX...................",
"                   ..XXXXXXXXXXXXXXXXXXXXXXXXXXXXXXXXXXXXXXXXXXXXXXXXXXX@XXXXXXXXXXX................",
"                    .X.XXXXXXXXXXXXXXXXXXXXXXXXXXXXXXXXXXXXXXXXXXXXXXXXXXXXXXXXXXXXXXXX.............",
"                      ..XXXXXXXXXXXXXXXXXXXXXXXXXXXXXXXXXXXXXXXXXXXX#@XXXXXXXXXXXXXXXXXXX...........",
"                        ..XXXXXXXXXXXXXXXXXXXXXXXXXXXXXXXXXXXXXXXXXXXXXXXXXXXXXXXXXXXXXXXXXX........",
"                          ..XXXXXXXXXXXXXXXXXXXXXXXXXXXXXXXXXXXXX@XXXXXXXXXXXXXXXXXXXXXXXXXXXXX.....",
"                           .XXXXXXXXXXXXXXXXXXXXXXXXXXXXXXXXXXX@XXXXXXXXXXXXXXXXXXXXXXXXXXXXXXXXXX..",
"                             ..XXXXXXXXXXXXXXXXXXXXXXXXXXXXXXXXXXXXXXXXXXXXXXXXXXXXXXXXXXXXXXXXXXXXX",
"                               ..XXXXXXXXXXXXXXXXXXXXXXXXXX@#XXXXXXXXXXXXXXXXXXXXXXXXXXXXXXXXXXXXXXX",
"                                ...XXXXXXXXXXXXXXXXXXXXXX@XXXXXXXXXXXXXXXXXXXXXXXXXXXXXXXXXXXXXXXXXX",
"                                  ..XXXXXXXXXXXXXXXXXXXXXXXXXXXXXXXXXXXXXXXXXXXXXXXXXXXXXXXXXXXXXXXX",
"                                    ..XXXXXXXXXXXXXXXX#$XXXXXXXXXXXXXXXXXXXXXXXXXXXXXXXXXXXXXXXXXXXX"
};
