/* XPM */
static char *result[] = {
/* columns rows colors chars-per-pixel */
"128 128 2 1 ",
"  c #433455",
". c #C5CCB8",
/* pixels */
"                                                                                                                                ",
"                                                                                                                                ",
"        ................................................................................................................        ",
"        ................................................................................................................        ",
"      ..                                                                                                                ..      ",
"      ..                                                                                                                ..      ",
"    ..                                                                                                                    ..    ",
"    ..                                                                                                                    ..    ",
"  ..                                                                                                                        ..  ",
"  ..                                                                                                                        ..  ",
"  ..                                                                                                                        ..  ",
"  ..                                                                                                                        ..  ",
"  ..                                                                                                                        ..  ",
"  ..                                                                                                                        ..  ",
"  ..                                                                                                                        ..  ",
"  ..                                                                                                                        ..  ",
"  ..                                                                                                                        ..  ",
"  ..                                                                                                                        ..  ",
"  ..                                                                                                                        ..  ",
"  ..                                                                                                                        ..  ",
"  ..                                                                                                                        ..  ",
"  ..                                                                                                                        ..  ",
"  ..                                                                                                                        ..  ",
"  ..                                                                                                                        ..  ",
"  ..                                                                                                                        ..  ",
"  ..                                                                                                                        ..  ",
"  ..                                                                                                                        ..  ",
"  ..                                                                                                                        ..  ",
"  ..                                                                                                                        ..  ",
"  ..                                                                                                                        ..  ",
"  ..                                                                                                                        ..  ",
"  ..                                                                                                                        ..  ",
"  ..                                                                                                                        ..  ",
"  ..                                                                                                                        ..  ",
"  ..                                                                                                                        ..  ",
"  ..                                                                                                                        ..  ",
"  ..                                                                                                                        ..  ",
"  ..                                                                                                                        ..  ",
"  ..                                                                                                                        ..  ",
"  ..                                                                                                                        ..  ",
"  ..                                                                                                                        ..  ",
"  ..                                                                                                                        ..  ",
"  ..                                                                                                                        ..  ",
"  ..                                                                                                                        ..  ",
"  ..                                                                                                                        ..  ",
"  ..                                                                                                                        ..  ",
"  ..                                                                                                                        ..  ",
"  ..                                                                                                                        ..  ",
"  ..                                                                                                                        ..  ",
"  ..                                                                                                                        ..  ",
"  ..                                                                                                                        ..  ",
"  ..                                                                                                                        ..  ",
"  ..                                                                                                                        ..  ",
"  ..                                                                                                                        ..  ",
"  ..                                                                                                                        ..  ",
"  ..                                                                                                                        ..  ",
"  ..                                                                                                                        ..  ",
"  ..                                                                                                                        ..  ",
"  ..                                                                                                                        ..  ",
"  ..                                                                                                                        ..  ",
"  ..                                                                                                                        ..  ",
"  ..                                                                                                                        ..  ",
"  ..                                                                                                                        ..  ",
"  ..                                                                                                                        ..  ",
"  ..                                                                                                                        ..  ",
"  ..                                                                                                                        ..  ",
"  ..                                                                                                                        ..  ",
"  ..                                                                                                                        ..  ",
"  ..                                                                                                                        ..  ",
"  ..                                                                                                                        ..  ",
"  ..                                                                                                                        ..  ",
"  ..                                                                                                                        ..  ",
"  ..                                                                                                                        ..  ",
"  ..                                                                                                                        ..  ",
"  ..                                                                                                                        ..  ",
"  ..                                                                                                                        ..  ",
"  ..                                                                                                                        ..  ",
"  ..                                                                                                                        ..  ",
"  ..                                                                                                                        ..  ",
"  ..                                                                                                                        ..  ",
"  ..                                                                                                                        ..  ",
"  ..                                                                                                                        ..  ",
"  ..                                                                                                                        ..  ",
"  ..                                                                                                                        ..  ",
"  ..                                                                                                                        ..  ",
"  ..                                                                                                                        ..  ",
"  ..                                                                                                                        ..  ",
"  ..                                                                                                                        ..  ",
"  ..                                                                                                                        ..  ",
"  ..                                                                                                                        ..  ",
"  ..                                                                                                                        ..  ",
"  ..                                                                                                                        ..  ",
"  ..                                                                                                                        ..  ",
"  ..                                                                                                                        ..  ",
"  ..                                                                                                                        ..  ",
"  ..                                                                                                                        ..  ",
"  ..                                                                                                                        ..  ",
"  ..                                                                                                                        ..  ",
"  ..                                                                                                                        ..  ",
"  ..                                                                                                                        ..  ",
"  ..                                                                                                                        ..  ",
"  ..                                                                                                                        ..  ",
"  ..                                                                                                                        ..  ",
"  ..                                                                                                                        ..  ",
"  ..                                                                                                                        ..  ",
"  ..                                                                                                                        ..  ",
"  ..                                                                                                                        ..  ",
"  ..                                                                                                                        ..  ",
"  ..                                                                                                                        ..  ",
"  ..                                                                                                                        ..  ",
"  ..                                                                                                                        ..  ",
"  ..                                                                                                                        ..  ",
"  ..                                                                                                                        ..  ",
"  ..                                                                                                                        ..  ",
"  ..                                                                                                                        ..  ",
"  ..                                                                                                                        ..  ",
"  ..                                                                                                                        ..  ",
"  ..                                                                                                                        ..  ",
"  ..                                                                                                                        ..  ",
"  ..                                                                                                                        ..  ",
"    ..                                                                                                                    ..    ",
"    ..                                                                                                                    ..    ",
"      ..                                                                                                                ..      ",
"      ..                                                                                                                ..      ",
"        ................................................................................................................        ",
"        ................................................................................................................        ",
"                                                                                                                                ",
"                                                                                                                                "
};