/* XPM */
static char *result[] = {
/* columns rows colors chars-per-pixel */
"20 20 2 1 ",
"  c white",
". c None",
/* pixels */
".........  .........",
".........  .........",
".........  .........",
".........  .........",
".........  .........",
".........  .........",
".........  .........",
".........  .........",
".........  .........",
"                    ",
"                    ",
".........  .........",
".........  .........",
".........  .........",
".........  .........",
".........  .........",
".........  .........",
".........  .........",
".........  .........",
".........  ........."
};
