/* XPM */
static char *result[] = {
/* columns rows colors chars-per-pixel */
"128 128 8 1 ",
"  c black",
". c #413154",
"X c #D7DCCE",
"o c #C6CDB9",
"O c #D5B0A0",
"+ c #C38E76",
"@ c #6F6777",
"# c white",
/* pixels */
"                                                                                                                                ",
"                                                                                                                                ",
"                                                                                                                                ",
"                                                                                                                                ",
"                                                                                                                                ",
"                                                                                                                                ",
"                                                                                                                                ",
"                                                                                                                                ",
"                                                                                                                                ",
"                                                                                                                                ",
"                                                                                                                                ",
"                                                                                                                                ",
"                                                                                                                                ",
"                                                                                                                                ",
"                                                                                                                                ",
"                                                                                                                                ",
"                                                                                                                                ",
"                                                                                                                                ",
"                                                                                                                                ",
"                                                                                                                                ",
"                                            ..                                      ..                                          ",
"                                            ..                                      ..                                          ",
"                                          ..XX..                                  ..oo..                                        ",
"                                          ..XX..                                  ..oo..                                        ",
"                                        ..XX..                                      ..oo..                                      ",
"                                        ..XX..                                      ..oo..                                      ",
"                                      ..XXXX..                                      ..oo..                                      ",
"                                      ..XXXX..                                      ..oo..                                      ",
"                                      ..XXoooo..                                ......oooo..                                    ",
"                                      ..XXoooo..                                ......oooo..                                    ",
"                                      ..XXoooo..................................oooooooooo..                                    ",
"                                      ..XXoooo..................................oooooooooo..                                    ",
"                                        ....oo..XXoooooooooooooooooooooooooooo....oooooo..                                      ",
"                                        ....oo..XXoooooooooooooooooooooooooooo....oooooo..                                      ",
"                                          ......XXoooooooooooooooooooooooooooooo....oo..                                        ",
"                                          ......XXoooooooooooooooooooooooooooooo....oo..                                        ",
"                                          ..XXXXXXoooooooooooooooooooooooooooooooo....                                          ",
"                                          ..XXXXXXoooooooooooooooooooooooooooooooo....                                          ",
"                                          ..XXoooooooooooooooooooooooooooooooooooo..                                            ",
"                                          ..XXoooooooooooooooooooooooooooooooooooo..                                            ",
"                                          ..XXoooooooooooooooooooooooooooooooooooo..                                            ",
"                                          ..XXoooooooooooooooooooooooooooooooooooo..                                            ",
"                                          ..XXoooooooooooooooooooooooooooooooooooo..                                            ",
"                                          ..XXoooooooooooooooooooooooooooooooooooo..                                            ",
"                                          ..OO++++++++++++++++++++oooooooooooooooo..                                            ",
"                                          ..OO++++++++++++++++++++oooooooooooooooo..                                            ",
"                                          ........................++oooooooooooooo..                                            ",
"                                          ........................++oooooooooooooo..                                            ",
"                                          ......................++oooooooooooooooo..                                            ",
"                                          ......................++oooooooooooooooo..                                            ",
"                                          ..OO++++....++++++++++++oooooooooooooooo..                                            ",
"                                          ..OO++++....++++++++++++oooooooooooooooo..                                            ",
"                                          ..oooo++....++oooooooooooooooooooooooooo..                                            ",
"                                          ..oooo++....++oooooooooooooooooooooooooo..                                            ",
"                                          ..oooo++....++oooooooooooooooooooooooooo..                                            ",
"                                          ..oooo++....++oooooooooooooooooooooooooo..                                            ",
"                                          ..oooo++....++oooooooooooooooooooooooooo..                                            ",
"                                          ..oooo++....++oooooooooooooooooooooooooo..                                            ",
"                                          ..oooo++....++oooooooooooooooooooooooooo..                                            ",
"                                          ..oooo++....++oooooooooooooooooooooooooo..                                            ",
"                                            ..oo++....++oooooooooooooooooooooo....                                              ",
"                                            ..oo++....++oooooooooooooooooooooo....                                              ",
"                                              ................................                                                  ",
"                                              ................................                                                  ",
"                                              ....++..oooooooooooooo++....                                                      ",
"                                              ....++..oooooooooooooo++....                                                      ",
"                                            ..++++..oooooooooooooooooo++++......                                                ",
"                                            ..++++..oooooooooooooooooo++++......                                                ",
"                                              ..oo..oooooooooooooooooo@@@@@@@@@@..                                              ",
"                                              ..oo..oooooooooooooooooo@@@@@@@@@@..                                              ",
"                                              ..oo..++oo++oooooooooo@@@@@@@@@@@@@@..                                            ",
"                                              ..oo..++oo++oooooooooo@@@@@@@@@@@@@@..                                            ",
"                                              ..oo..++oo++++oooooo@@@@++++++++++@@@@..                                          ",
"                                              ..oo..++oo++++oooooo@@@@++++++++++@@@@..                                          ",
"                                              ..oo..oooooooooooo@@@@++++++++++++++@@@@..                                        ",
"                                              ..oo..oooooooooooo@@@@++++++++++++++@@@@..                                        ",
"                                              ..oo..++oo++++oo@@@@++++++oo++oo++++++@@@@..                                      ",
"                                              ..oo..++oo++++oo@@@@++++++oo++oo++++++@@@@..                                      ",
"                                              ..oo..++oo++oooo@@@@++++oooo++oooo++++@@@@..                                      ",
"                                              ..oo..++oo++oooo@@@@++++oooo++oooo++++@@@@..                                      ",
"                                              ......oooooooooo@@@@++++++++++++++++++@@@@..                                      ",
"                                              ......oooooooooo@@@@++++++++++++++++++@@@@..                                      ",
"                                              ..oo..oooooooooo@@@@++++oooo++oooo++++@@@@..                                      ",
"                                              ..oo..oooooooooo@@@@++++oooo++oooo++++@@@@..                                      ",
"                                              ..oo....oooooooo@@@@++++++oo++oo++++++@@@@..                                      ",
"                                              ..oo....oooooooo@@@@++++++oo++oo++++++@@@@..                                      ",
"                                                ..oo............@@@@++++++++++++++@@@@..                                        ",
"                                                ..oo............@@@@++++++++++++++@@@@..                                        ",
"                                                  ..  ..oo....oo..@@@@++++++++++@@@@..                                          ",
"                                                  ..  ..oo....oo..@@@@++++++++++@@@@..                                          ",
"                                                      ..oo....oo....@@@@@@@@@@@@@@..                                            ",
"                                                      ..oo....oo....@@@@@@@@@@@@@@..                                            ",
"                                                      ..oo....oo..  ..@@@@@@@@@@..                                              ",
"                                                      ..oo....oo..  ..@@@@@@@@@@..                                              ",
"                                                      ..oo....oo..    ..........                                                ",
"                                                      ..oo....oo..    ..........                                                ",
"                                                    ..++oo..++oo..                                                              ",
"                                                    ..++oo..++oo..                                                              ",
"                                                      ..........                                                                ",
"                                                      ..........                                                                ",
"                                                                                                                                ",
"                                                                                                                                ",
"                                                                                                                                ",
"                                                                                                                                ",
"                                                                                                                                ",
"                                                                                                                                ",
"                                                                                                                                ",
"                                                                                                                                ",
"                                                                                                                                ",
"                                                                                                                                ",
"                                                                                                                                ",
"                                                                                                                                ",
"                                                                                                                                ",
"                                                                                                                                ",
"                                                                                                                                ",
"                                                                                                                                ",
"                                                                                                                                ",
"                                                                                                                                ",
"                                                                                                                                ",
"                                                                                                                                ",
"                                                                                                                                ",
"                                                                                                                                ",
"                                                                                                                                ",
"                                                                                                                                ",
"                                                                                                                                ",
"                                                                                                                                ",
"                                                                                                                                ",
"                                                                                                                                "
};