/* XPM */
static char *result[] = {
/* columns rows colors chars-per-pixel */
"9 12 3 1 ",
"  c #FFA700",
". c #FFA800",
"X c None",
/* pixels */
"XXXXXXXXX",
"XXXX.XXXX",
"XXXX.XXXX",
"XXX...XXX",
"XXX...XXX",
"XXX...XXX",
"XX.....XX",
"XX.....XX",
"XX.....XX",
"X ......X",
"X.......X",
"XXXXXXXXX"
};
