/* XPM */
static char *result[] = {
/* columns rows colors chars-per-pixel */
"30 30 5 1 ",
"  c #D7D7D7",
". c #D8D8D8",
"X c gray85",
"o c #DADADA",
"O c None",
/* pixels */
"OOOOOOOOOOOOOOOOOOOOOOOOOOOOOO",
"OOOOOOOOOOOOOOooOOOOOOOOOOOOOO",
"OOOOOOOOOOOOOOXXOOOOOOOOOOOOOO",
"OOOOOOOOOOOOOoXXoOOOOOOOOOOOOO",
"OOOOOOOOOOOOOXXXXOOOOOOOOOOOOO",
"OOOOOOOOOOOOoXXXXoOOOOOOOOOOOO",
"OOOOOOOOOOOOXXXXXXOOOOOOOOOOOO",
"OOOOOOOOOOOoXXXXXXoOOOOOOOOOOO",
"OOOOOOOOOOOXXXXXXXXOOOOOOOOOOO",
"OOOOOOOOOOoXXXXXXXXoOOOOOOOOOO",
"OOOOOOOOOOXXXXXXXXXXOOOOOOOOOO",
"OOOOOOOOOoXXXXXXXXXXoOOOOOOOOO",
"OOOOOOOOOXXXXXXXXXXXXOOOOOOOOO",
"OOOOOOOOoXXXXXXXXXXXXoOOOOOOOO",
"OOOOOOOOXXXXXXXXXXXXXXOOOOOOOO",
"OOOOOOOoXXXXXXXXXXXXXXoOOOOOOO",
"OOOOOOOXXXXXXXXXXXXXXXXOOOOOOO",
"OOOOOOoXXXXXXXXXXXXXXXXoOOOOOO",
"OOOOOOXXXXXXXXXXXXXXXXXXOOOOOO",
"OOOOOoXXXXXXXXXXXXXXXXXXoOOOOO",
"OOOOOXXXXXXXXXXXXXXXXXXXXOOOOO",
"OOOOoXXXXXXXXXXXXXXXXXXXXoOOOO",
"OOOOXXXXXXXXX.OOXXXXXXXXXXOOOO",
"OOOoXXXXXXXXOOOOOOXXXXXXXXoOOO",
"OOOXXXXXXXOOOOOOOOOOXXXXXXXOOO",
"OOoXXXXX OOOOOOOOOOOO XXXXXoOO",
"OOXXXX OOOOOOOOOOOOOOOO XXXXOO",
"OoXX.OOOOOOOOOOOOOOOOOOOO XXoO",
"OXXOOOOOOOOOOOOOOOOOOOOOOOO XO",
" OOOOOOOOOOOOOOOOOOOOOOOOOOOO "
};
