/* XPM */
static char *result[] = {
/* columns rows colors chars-per-pixel */
"128 128 7 1 ",
"  c black",
". c #C7CEBA",
"X c #C48F77",
"o c #3F2D53",
"O c #C6CDB9",
"+ c #8C9082",
"@ c white",
/* pixels */
"                                                                                                                                ",
"                                                                                                                                ",
"                                                                                                                                ",
"                                                                                                                                ",
"                                                                                                                                ",
"                                                                                                                                ",
"                                                                                                                                ",
"                                                                                                                                ",
"                                                                                                                                ",
"                                                                                                                                ",
"                                                                                                                                ",
"                                                                                                                                ",
"                                                                                                                                ",
"                                                                                                                                ",
"                                                                                                                                ",
"                                                                                                                                ",
"                                                                                                                                ",
"                                                                                                                                ",
"                                                                                                                                ",
"                                                                                                                                ",
"                                                                                                                                ",
"                                                                                                                                ",
"                                                                                                                                ",
"                                                                                                                                ",
"                                                    ......................                                                      ",
"                                                    ......................                                                      ",
"                                                  ..........................                                                    ",
"                                                  ..........................                                                    ",
"                                                ..............................                                                  ",
"                                                ..............................                                                  ",
"                                              ................................                                                  ",
"                                              ................................                                                  ",
"                                              ...XXXXX..........XXXXXX........                                                  ",
"                                              ...XXXXX..........XXXXXX........                                                  ",
"                                              ...XXXXX..XXXX....XXXXXX........                                                  ",
"                                              ...XXXXX..XXXX....XXXXXX........                                                  ",
"                                              ...XXXXX..........XXXXXX....oo..                                                  ",
"                                              ...XXXXX..........XXXXXX....oo..                                                  ",
"                                              ...XXXXX..........XXXXXX....oo..          ..                                      ",
"                                              ............................oo..          ..                                      ",
"                                                ........................oo....          ..                                      ",
"                                                ........................oo....          ..                                      ",
"                                    ..          ......  ......  ............      ..    ..    ..                                ",
"                                    ..          ......  ......  ............      ..    ..    ..                                ",
"                                    ..          ......  ......  ..........          ..      ..                                  ",
"                                    ..          ......  ......  ..........          ..      ..                                  ",
"                              ..    ..    ..    ......  ......  ........                                                        ",
"                              ..    ..    ..    ......  ......  ........                                                        ",
"                                ..      ..        ....  ......  ......              ..........                                  ",
"                                ..      ..        ....  ......  ......              ..........                                  ",
"                                                                                      ......                                    ",
"                                                                                      ......                                    ",
"                                ..........                                                                                      ",
"                                ..........                                                                                      ",
"                                  ......                                                ..                                      ",
"                                  ......                                                ..                                      ",
"                                                                                      ..                                        ",
"                                                                                      ..                                        ",
"                                      OO          ....  ......  ......              ..                                          ",
"                                      OO          ....  ......  ......              ..                                          ",
"                                        ..          ................        ++    ..                                            ",
"                                        ..          ................        ++    ..                                            ",
"                                          ..      ++          ++      ..  ++oo++                                                ",
"                                          ..      ++          ++      ..  ++oo++                                                ",
"                                            ..  ++oo++  ..    ++  ....      ++                                                  ",
"                                            ..  ++oo++  ..    ++  ....      ++                                                  ",
"                                                  ++      ........                                                              ",
"                                                  ++      ........                                                              ",
"                                                              ++                                                                ",
"                                                              ++                                                                ",
"                                                              ++      ..                                                        ",
"                                                              ++      ..                                                        ",
"                                                        ..    ++  ....                                                          ",
"                                                        ..    ++  ....                                                          ",
"                                                          ........                                                              ",
"                                                          ........                                                              ",
"                                                              ++                                                                ",
"                                                              ++                                                                ",
"                                                              ++    ..                                                          ",
"                                                              ++    ..                                                          ",
"                                                          ..  ++  ..                                                            ",
"                                                          ..  ++  ..                                                            ",
"                                                            ......    ++                                                        ",
"                                                            ......    ++                                                        ",
"                                                        ++          ++oo++                                                      ",
"                                                        ++          ++oo++                                                      ",
"                                                          ++          ++                                                        ",
"                                                          ++          ++                                                        ",
"                                                                                                                                ",
"                                                                                                                                ",
"                                                          ..          ..                                                        ",
"                                                          ..          ..                                                        ",
"                                                          ..          ..                                                        ",
"                                                          ..          ..                                                        ",
"                                                          ..          ..                                                        ",
"                                                          ..          ..                                                        ",
"                                                                                                                                ",
"                                                                                                                                ",
"                                                          ..          ..                                                        ",
"                                                          ..          ..                                                        ",
"                                                          ..          ..                                                        ",
"                                                          ..          ..                                                        ",
"                                                          ..          ..                                                        ",
"                                                          ..          ..                                                        ",
"                                                      ....        ....                                                          ",
"                                                      ....        ....                                                          ",
"                                                                                                                                ",
"                                                                                                                                ",
"                                                                                                                                ",
"                                                                                                                                ",
"                                                                                                                                ",
"                                                                                                                                ",
"                                                                                                                                ",
"                                                                                                                                ",
"                                                                                                                                ",
"                                                                                                                                ",
"                                                                                                                                ",
"                                                                                                                                ",
"                                                                                                                                ",
"                                                                                                                                ",
"                                                                                                                                ",
"                                                                                                                                ",
"                                                                                                                                ",
"                                                                                                                                ",
"                                                                                                                                ",
"                                                                                                                                ",
"                                                                                                                                ",
"                                                                                                                                "
};