/* XPM */
static char *result[] = {
/* columns rows colors chars-per-pixel */
"12 12 2 1 ",
". c #FF0000",
"X c None",
/* pixels */
"XXXXXXXXXXXX",
"X..XX..XX..X",
"X..XX..XX..X",
"X..XX..XX..X",
"X..XX..XX..X",
"X..XX..XX..X",
"X..XX..XX..X",
"X..XX..XX..X",
"X..XX..XX..X",
"X..XX..XX..X",
"X..XX..XX..X",
"XXXXXXXXXXXX"
};