/* XPM */
static char *result[] = {
/* columns rows colors chars-per-pixel */
"128 128 5 1 ",
"  c #C5CCB8",
". c #433455",
"X c #6F6776",
"o c #C28D75",
"O c white",
/* pixels */
"                                                                                                                                ",
"                                                                                                                                ",
"..........................  ......................................  ......................................  ....................",
"..........................  ......................................  ......................................  ....................",
"..........................  ......................................  ......................................  ....................",
"..........................  ......................................  ......................................  ....................",
"..........................  ......................................  ......................................  ....................",
"..........................  ......................................  ......................................  ....................",
"..........................  ......................................  ......................................  ....................",
"..........................  ......................................  ......................................  ....................",
"..........................  ......................................  ......................................  ....................",
"..........................  ......................................  ......................................  ....................",
"..........................  ......................................  ......................................  ....................",
"..........................  ......................................  ......................................  ....................",
"                                                                                                                                ",
"                                                                                                                                ",
"....  ......................................  ......................................  ......................................  ..",
"....  ......................................  ......................................  ......................................  ..",
"....  ......................................  ......................................  ......................................  ..",
"....  ......................................  ......................................  ......................................  ..",
"....  ......................................  ......................................  ......................................  ..",
"....  ......................................  ......................................  ......................................  ..",
"....  ......................................  ......................................  ......................................  ..",
"....  ......................................  ......................................  ......................................  ..",
"....  ......................................  ......................................  ......................................  ..",
"....  ......................................  ......................................  ......................................  ..",
"....  ......................................  ......................................  ......................................  ..",
"....  ......................................  ......................................  ......................................  ..",
"                                                                                                                                ",
"                                                                                                                                ",
"..........................  ......................................  ......................................  ....................",
"..........................  ......................................  ......................................  ....................",
"..........................  ......................................  ......................................  ....................",
"..........................  ......................................  ......................................  ....................",
"..........................  ......................................  ......................................  ....................",
"..........................  ......................................  ......................................  ....................",
"..........................  ......................................  ......................................  ....................",
"..........................  ......................................  ......................................  ....................",
"..........................  ....................................XXXXXX....................................  ....................",
"..........................  ....................................XXXXXX....................................  ....................",
"..........................  ..................................XX..  ..XX......oo..........................  ....................",
"..........................  ...........................oooo...XX..  ..XX......oo..........................  ....................",
"                                                       oooo   XX      XX    oo  oo                                              ",
"                                                       oooo   XX      XX    oo  oo                                              ",
"....  ......................................  .........oooo.....XX............oo....  ......................................  ..",
"....  ......................................  ..................XX............oo....  ......................................  ..",
"....  ......................................  ....oo..............XX................  ......................................  ..",
"....  ......................................  ....oo..............XX................  ......................................  ..",
"....  ......................................  ....................XX..............oooo......................................  ..",
"....  ......................................  ....................XX..............oooo......................................  ..",
"....  ......................................  ................XXXXXXXXXX..........oooo......................................  ..",
"....  ......................................  ................XXXXXXXXXX..........oooo......................................  ..",
"....  ......................................  ..........XXXXXXXXXXXXXXXXXXXXXX......  ......................................  ..",
"....  ......................................  ..........XXXXXXXXXXXXXXXXXXXXXX......  ......................................  ..",
"....  ....................................oooooo......XXXXXXXXXXXXXXXXXXXXXXXXXX....  ......................................  ..",
"....  ....................................oooooo......XXXXXXXXXXXXXXXXXXXXXXXXXX....  ......................................  ..",
"                                        oo      oo        XX  oooooooooo  XX                                                    ",
"                                        oo      oo        XX  oooooooooo  XX                                                    ",
"..........................  ............oo......oo........XX  oooooooooo  XX..........oo..................  ....................",
"..........................  ............oo......oo........XX  oooooooooo  XX..........oo..................  ....................",
"..........................  ............oo......oo........XX  oooooooooo  XX..............................  ....................",
"..........................  ............oo......oo........XX  oooooooooo  XX..............................  ....................",
"..........................  ..............oooooo..........XX    oooooo    XX..............................  ....................",
"..........................  ..............oooooo..........XX    oooooo    XX..............................  ....................",
"..........................  ..............................XXoo          ooXX......oo......................  ....................",
"..........................  ..............................XXoo          ooXX......oo......................  ....................",
"..........................  ........................oo......XXooooooooooXX......oo..oo....................  ....................",
"..........................  ........................oo......XXooooooooooXX......oo..oo....................  ....................",
"..........................  ..................................XXXXXXXXXX..........oo......................  ....................",
"..........................  ..................................XXXXXXXXXX..........oo......................  ....................",
"                                                                                                                                ",
"                                                                                                                                ",
"....  ......................................  ..........oooo...............oooo.....  ......................................  ..",
"....  ......................................  ..........oooo...............oooo.....  ......................................  ..",
"....  ......................................  ..........oooo.............oo....oo...  ......................................  ..",
"....  ......................................  ..........oooo.............oo....oo...  ......................................  ..",
"....  ......................................  ...................oo......oo....oo...  ......................................  ..",
"....  ......................................  ...................oo......oo....oo...  ......................................  ..",
"....  ......................................  .............................oooo.....  ......................................  ..",
"....  ......................................  .............................oooo.....  ......................................  ..",
"....  ......................................  ......................................  ......................................  ..",
"....  ......................................  ......................................  ......................................  ..",
"....  ......................................  ......................................  ......................................  ..",
"....  ......................................  ......................................  ......................................  ..",
"                                                                                                                                ",
"                                                                                                                                ",
"..........................  ......................................  ......................................  ....................",
"..........................  ......................................  ......................................  ....................",
"..........................  ......................................  ......................................  ....................",
"..........................  ......................................  ......................................  ....................",
"..........................  ......................................  ......................................  ....................",
"..........................  ......................................  ......................................  ....................",
"..........................  ......................................  ......................................  ....................",
"..........................  ......................................  ......................................  ....................",
"..........................  ......................................  ......................................  ....................",
"..........................  ......................................  ......................................  ....................",
"..........................  ......................................  ......................................  ....................",
"..........................  ......................................  ......................................  ....................",
"                                                                                                                                ",
"                                                                                                                                ",
"....  ......................................  ......................................  ......................................  ..",
"....  ......................................  ......................................  ......................................  ..",
"....  ......................................  ......................................  ......................................  ..",
"....  ......................................  ......................................  ......................................  ..",
"....  ......................................  ......................................  ......................................  ..",
"....  ......................................  ......................................  ......................................  ..",
"....  ......................................  ......................................  ......................................  ..",
"....  ......................................  ......................................  ......................................  ..",
"....  ......................................  ......................................  ......................................  ..",
"....  ......................................  ......................................  ......................................  ..",
"....  ......................................  ......................................  ......................................  ..",
"....  ......................................  ......................................  ......................................  ..",
"                                                                                                                                ",
"                                                                                                                                ",
"..........................  ......................................  ......................................  ....................",
"..........................  ......................................  ......................................  ....................",
"..........................  ......................................  ......................................  ....................",
"..........................  ......................................  ......................................  ....................",
"..........................  ......................................  ......................................  ....................",
"..........................  ......................................  ......................................  ....................",
"..........................  ......................................  ......................................  ....................",
"..........................  ......................................  ......................................  ....................",
"..........................  ......................................  ......................................  ....................",
"..........................  ......................................  ......................................  ....................",
"..........................  ......................................  ......................................  ....................",
"..........................  ......................................  ......................................  ....................",
"                                                                                                                                ",
"                                                                                                                                "
};
