/* XPM */
static char *_c1f8a7a5dfe42e58a412ddd26259f8ca29vxWEuBR6znsIm[] = {
/* columns rows colors chars-per-pixel */
"64 64 210 2 ",
"   c #45353F",
".  c #2D1C40",
"X  c #2F244E",
"o  c #352A44",
"O  c #3B2D46",
"+  c #3C274E",
"@  c #362B4C",
"#  c #3D2D4C",
"$  c #3D3146",
"%  c #37344A",
"&  c #3D324C",
"*  c #3E3A4D",
"=  c #3D2D53",
"-  c #3E2E59",
";  c #372958",
":  c #2E3357",
">  c #3D3354",
",  c #3E3952",
"<  c #3E335B",
"1  c #3D3A5A",
"2  c #363559",
"3  c #3D2561",
"4  c #3B3865",
"5  c #422D4D",
"6  c #4B2F48",
"7  c #42334E",
"8  c #49334E",
"9  c #453C4E",
"0  c #4F3D4B",
"q  c #463446",
"w  c #533B4D",
"e  c #53374E",
"r  c #422E54",
"t  c #492E53",
"y  c #432E5B",
"u  c #492C5D",
"i  c #433354",
"p  c #493555",
"a  c #453B54",
"s  c #493D55",
"d  c #44335A",
"f  c #49355B",
"g  c #453B5A",
"h  c #4A3D5B",
"j  c #513452",
"k  c #533B55",
"l  c #543C5B",
"z  c #5A3C5B",
"x  c #52365D",
"c  c #453461",
"v  c #4A3464",
"b  c #453C64",
"n  c #4B3D62",
"m  c #4A3D69",
"M  c #533662",
"N  c #543C62",
"B  c #513F6F",
"V  c #583E63",
"C  c #442B64",
"Z  c #6F3A68",
"A  c #3C4161",
"S  c #47414D",
"D  c #4B434C",
"F  c #4D484F",
"G  c #52464F",
"H  c #464152",
"J  c #4B4256",
"K  c #45425C",
"L  c #4C425B",
"P  c #4C495D",
"I  c #4F4C55",
"U  c #514455",
"Y  c #51445C",
"T  c #59435D",
"R  c #534B5C",
"E  c #594256",
"W  c #4E505F",
"Q  c #614B4E",
"!  c #63495D",
"~  c #684B5F",
"^  c #60505A",
"/  c #4C4362",
"(  c #4E4A61",
")  c #4D416B",
"_  c #4F496D",
"`  c #474061",
"'  c #514364",
"]  c #534A62",
"[  c #53416B",
"{  c #594966",
"}  c #575269",
"|  c #514970",
" . c #665C6C",
".. c #7C5C6B",
"X. c #7F5A61",
"o. c #6A5974",
"O. c #6A636D",
"+. c #69686D",
"@. c #77696C",
"#. c #767E6F",
"$. c #6D6273",
"%. c #6B6A74",
"&. c #6E6C7B",
"*. c #686574",
"=. c #766271",
"-. c #736C73",
";. c #716A7A",
":. c #786779",
">. c #757471",
",. c #79767B",
"<. c #885F4D",
"1. c #80615E",
"2. c #9F7C5C",
"3. c #816364",
"4. c #896969",
"5. c #956567",
"6. c #877164",
"7. c #9D776B",
"8. c #816A7E",
"9. c #A87F6D",
"0. c #B87D75",
"q. c #A17A75",
"w. c #9E8566",
"e. c #BB836B",
"r. c #BB896B",
"t. c #A78778",
"y. c #B38E71",
"u. c #BA8D74",
"i. c #B78478",
"p. c #AB967B",
"a. c #B7917F",
"s. c #BB957A",
"d. c #C48C74",
"f. c #C58B77",
"g. c #C2947A",
"h. c #DA9D70",
"j. c #CEA27F",
"k. c #765E80",
"l. c #7A6D85",
"z. c #756C81",
"x. c #A48888",
"c. c #B48C81",
"v. c #BA8985",
"b. c #BE9A82",
"n. c #AB998B",
"m. c #B6B99E",
"M. c #B9B99F",
"N. c #AFAFA5",
"B. c #B2AEAA",
"V. c #BBAEA6",
"C. c #B2B1A3",
"Z. c #BAB6A7",
"A. c #B5B9A7",
"S. c #BBBBA4",
"D. c #B4B4AC",
"F. c #BAB5AD",
"G. c #B6BBAC",
"H. c #B8BDAA",
"J. c #B9BDAC",
"K. c #BABEAD",
"L. c #BABCAD",
"P. c #B5B6B2",
"I. c #BDB6B3",
"U. c #BCB5B3",
"Y. c #B4BDB3",
"T. c #BCBBB3",
"R. c #BAB5B9",
"E. c #BDBCBA",
"W. c #B5B4BA",
"Q. c #ACB5B2",
"!. c #C9B18F",
"~. c #CAA395",
"^. c #C1BAAC",
"/. c #C1BBA5",
"(. c #C0B6B5",
"). c #C0BDB2",
"_. c #C2BDBA",
"`. c #D3B6A6",
"'. c #B7C39F",
"]. c #B5C3A7",
"[. c #BBC2A3",
"{. c #BBC9A5",
"}. c #BEC3AF",
"|. c #BDC0AF",
" X c #BEC2AE",
".X c #B3C1AA",
"XX c #BFC4B0",
"oX c #BEC3B2",
"OX c #BCC4BB",
"+X c #B3C2B5",
"@X c #C1C1A7",
"#X c #C7C8A3",
"$X c #C2C4AD",
"%X c #CFC2AD",
"&X c #C5CDA9",
"*X c #CBC9A9",
"=X c #C2D0AD",
"-X c #C0C5B1",
";X c #C1C4B3",
":X c #C3C9B4",
">X c #C2C3BB",
",X c #C6C8BB",
"<X c #CBC6B6",
"1X c #DBC1B2",
"2X c #BFB6C9",
"3X c #B7BFC1",
"4X c #C7BDC5",
"5X c #C0B4C8",
"6X c #BBC4C1",
"7X c #C6C2C3",
/* pixels */
"XX$XXXXXXXXXXX}.oXoX}.oXOX=XoXOX$X}.}.}.$XXXXXXXXXXXXXXXoXXX-XoXOX&XOXoX,XL.oXOXoXoX}.$XXXXX$XXXoX>X}.}.OX=XoX>X}.}.oXoX}.-X-X-X",
"h h h h h h h h h h Y s / E.] a h h h h h h h h h h h h h h h h ] _./ s h J L h h h h h K h h s h s Y s / E.] a h h h h h h s h ",
"r i i i i d i > i i r = h I.h 5 i i i i i i i i i d d = i d r = s I.h r r i i r i i i i i i i i 7 r r # s I.L = i i i i i i i r ",
"i a i i i i i a 7 d d i K L.s d a i i i i i i i i i a i i a i 7 J T.h % d i d d a i i i i i d i i d c d K L.s d i i i a i i a i ",
"i a i i i i i i i d c i K L.J i d i i d i d i d i i i i i a i > J E.h & g i d y i i a i i i i > 7 d c i K L.s > i i a > i i a i ",
"> d i d i d r d i r r # h (.L + d i i i d r i i i i d i i i i = s I.h 7 i p d i r d < r d i d d 7 i r # h I.L = d d i d i r r < ",
"h h h h h h h h s s L s P E.] i h h h K s h h h g h h h h h h h ] _./ s g h h s h h h h h h h h s s Y s L E.] a h h h h h h h h ",
"L.G.L.L.J.J.J.J.L.J.G.J.Y.{.J.T.J.J.J.J.J.L.K.K.L.J.H.A.G.J.J.H.+X[.Y.J.T.A.J.J.J.J.J.J.J.J.J.J.G.L.G.G.E.{.G.T.G.J.J.J.J.|.L.L.",
"h R -XP a ` s K K Y s h P i L J s h L s g ] K.P s J L K J h J K L 7 P h J L h h g ] K.P a h h J L L s h P i L J J h L h h ( K.( ",
"= p F.h r u r p r r d d r d r r f - t d r h I./ = u t d r r u y r f r + d r d d = h U.l i y y d r r d i r d r r r - i r r h F.' ",
"d s >Xa i h i i d i , i g g a d & g 7 d # s T., = i i i i i a i g d s i a i i d i H T.a & g i & a i > d d d h , d d a a & h ).a ",
"# J D.( # # i g a i g d > @ g i g @ s g a L G.P > i i 1 a > i i > > > g > i , i , J A.( & > d g g i g g > & d i , > i > a J N.( ",
"5 s _.g r d 7 # r r p r r f i r i d r @ # s (.a i r r r r i r i i g r r r i i r 5 i _.d 5 p 5 + r r i r r f r r f p r r # s _.s ",
"s ] E./ a h h K h h s i Y a L h h s h ' 9 { _.( h h h s s K l h L 5 Y L s h Y h s ] _./ s L h ] h K s s Y s Y h d s h n 9 ] R.] ",
"T.T.'.OXL.L.T.L.L.T.oXA.T.;XA.Z.).J.L.D.$XP.S.T.P.L.L.G.Z.T.T.Z.A.,XJ.J.A.L.F.K.P.T.'.OXL.L.L.I.F.T.T.A.K.;XG.Z.T.S.L.P.}.T.S.oX",
"h g D g Y h h h / s Y s ] 5XR s h s h [ s h U h L L L h h h K h R 5XP J ' h L s Y d F g h h h h / s Y s ] 5XR J h J s [ s h J n ",
"i & y & i = 7 > = 7 i i g G.D - > > % d # $ d & r > > = r d 7 5 K F.H = i r $ i 7 7 d # & > 7 = = 7 7 > g J.9 = < % > 1 & i > & ",
"d 7 g i i i i i d p # > n F.L u f f p f i i v i = H a 5 s * & d s ).) > i c q < d i - g h = 9 p d p # i n G.Y d f p f t 7 p u i ",
"d p # d i r i h f p f > h _.a i , & a < h a - g < i r f g 2 d - K F.U & d c a i > g < g > d 7 f f d f i g _.p i , & d > h g = a ",
"i & s O i h # O @ i # 7 g P.s & 7 p # i @ + h O d t 5 : @ - d 7 O.-.o.b o q 7 7 r , > O i # i 7 @ i # i s I.s & 7 i 7 i O # h # ",
"s K 9 L s g h P ] h s h } P.R s s s h J ' L a L s k J ^ 4.~ h  .W W.| O.U v E x.l k 9 L h Y a J ] s h s } P.] s s a s h h ` a J ",
"T.E.$XK.I.E.E.F.D.E.F.L.P.$XU.F.T.P.E.L.E.P.XXG.L.D.3X~.h.!.D.,.Y.*XB.-.F.S.p.`.x.Z.$X}.F.F.>XP.D.E.F.L.F.$XP.F.oXR.T.E.E.T.oXY.",
"a J 7XJ J L g s L s s s K D / K s Y d J 7 Y 7XR h E > o.5.Q 1 b +.n s h H h N t.E U >XJ h Y d H J h s s K S L L s N s U 7 Y 7XR ",
"% K R.J @ i - 7 > r i d = & y 5 i i < $ a h I.9 8 q.w : O 5 2 i 9 o.f - > < d 6 O P W.H = i y & > = i d y & y = & < i % i s R.H ",
"i h S.) > i i d a d d r a < g 7 i 6 d c q m G.z t g f 7 $ n ; 0 p $.s f d = h r d e.f.v 1 > , d a d d 7 i d d 7 c i f i y L Z./ ",
"i h S.b & i p i g d h i i c i i 1 f 1 i * n .Xs 7 , u = s i g  .$.%.+.$.& h d > s u.y.k 7 p 6 p g d n i i c i s a 7 a i d h S.K ",
"# g A.m > i = > & r r 7 i O h 7 & t > 7 : k C.( % i r 1 *...$.;.&.%.+.:.+.*.o.a - 0 A.h r - > > # r = 7 a @ d 7 < & > # ; g F.g ",
"K ] ,XL s L H J ] h h s ` a n h h w n k z v.j.i.N a L z.;.l.z.@.*.;.=.:.;.;.8.:.h K 6X0 l N K h R h L s / 9 n h h H a R h R oX] ",
"I.L.m.OXI.).).I.C.L.).^.G.&XI.K. XS.L.P.p.Z.[./.c.F.P.T.T.>.K.s.f.f.u.a.^.#.G.+XL.+X.X#XJ.G.G.G.N.I.T.@XF.&XE.L.).I._.C.I.T.@XP.",
"h h s h h h h h ) g h g | P._ K K 4 ' / e.{ < ] r.G K L s &.<Xu.f.d.d.b.%X-.s b z f { x.{ a h k / g K h | P._ K h h h L h h s J ",
"i 7 > , i i & 7 & i 7 $ g Z.h O q r p a t.j s s t.q - i > %.$Xb.d.d.r.s.<X+.i y i @ v e @ i d i & i 7 $ h Z.s O 7 d i = # i d 7 ",
"u f d i d u d d i f p 5 [ ).m i p f c > w e.0.0.z r i 7 g ;.-X%Xg.u.b.1X>X%.p 5 i K = 8 g 7 f > i f f 5 B K.n i d d i d d i c i ",
"d d d i d d d i i f f # [ ^.n i p i d f i N f s 7 4 c j 1 $.a.<X&X%X*X*Xn.=.i < ' w.z i q i v i r f f 5 B ^.m i i d = g d r c d ",
"r i = , i r > i # i 7 $ h Z.g & i > i # i @ i > r p 7.e &   :.y.c.v.u.a.:.y 7 g 7.Z 2.x 3 u 5 a % i 7 q h Z.h O 7 i i i # i d 7 ",
"l K J h h h Y h ' h h h | R._ L h n L / g / J h z h R b b h [ :.l.,.>.@.T h 7 N ! t.T h / h m H ' g h a | P._ n h h h L h K s s ",
"I.F.M.>XF.(.).P.N.L.L.}.D.&XP.L.).A.F.F.E.L.M.oXH.@XQ.E.@XT.Z.L.^.J.W.oXD._.#XY.P.[.oX+X.XL.A.P.C.L.).K.A.&XE.K.T.I._.C.E.T.@XZ.",
"J ] ,XL s J H J ] h h h ` s h h a J H U a R >XL g s J J s.s._ h K g V ' g @.~.4.f ' [./ D d Y J ] h Y h / 9 h h h J a R s R T.] ",
"# g F.` > i > = & = # 7 a O g > d i i r y g I.h r d % a 0.e.5 7 p u - X X.6.. 5...k _.f C i 7 = & = # 7 i @ f 7 < & > # = g P.h ",
"> J S.m # i a i a d N d i c d i d i i i - / Z.h < d a t f L x o <.4.2 - 5.5.@ 5.3.i J.[ r 9 a d g d n i 7 c i i d & d 9 g h Z.K ",
"> h S.) i d i d i d d 7 i d a i d 9 i q d s S.K i p r c $ O 4 f v * p 7 % 1.d.@.5 h ].K 8 = s i i d d i a < g i d a f r y L S.` ",
"% K R.J @ i > 7 > = i p = & y = & d > O i H R.D > r i = i = i r < 7 y & ; d h i # h R.s # i - 7 > = i d = & y > 7 - i O > s W.S ",
"7 P 7XI h L g s L g h s h S L J s / a J & P 4XI s L s J s K J h L H L 9 ] s 7 U * P 7XJ J L g s J h s s h S / J s ' s U i R 4XR ",
"E.I.$XT.E.T.E.P.D.).U.L.U.$XP.G.).I.E.E.).P.-XL.P.T.I.E.I.I.I.L.T.S.E.K.B.I.).L.E.Y.$X^.E.P._.I.D.E.F.L.I.$XP.F.T.R.T.T._.P.-XG.",
"h K 9 J s h h L ] g s s } P.] s h h s J / h a K K J J J K J J K } U.R s ' L h K h J s L h s h L ] h h s } P.R s s s K h L K a L ",
"i 5 h O i g # O + > # i h P.s & 7 a & i O # h # 7 7 & 7 # i > # a P.s o # i r & d & s O i p # O @ r # 7 g E.s # 7 7 i i # # g # ",
"i i = d i r i h g f p i g _.9 u i 7 d i h f = s d d d d d d i i n -Xs d n # g i d a = a i r i h g f f i h _.a r i & i > h h = g ",
"d 7 g i d i 7 i i p # > ` F.Y d g p d d 7 i d i d d d i d p i i ` C.Y y f a = f d 7 c i i d 7 i d p # > ` F.Y y f s f r 7 p d 5 ",
"i $ d & 7 = & d r 7 i > g L.9 - - & = d & i - 7 5 > 7 # 7 7 i 5 g J.S > @ 7 i % i O d > 7 > & > = 7 i > a J.9 - > & > d & , < 7 ",
"h h D g n h h h ' s L s { 5XY J n J h [ s h J n K h h h h h h h R 5XY s Y h L L n a J g h Y h L L h L s ] 5XT s h J s B s h J K ",
"T.T.].OXG.L.K.L.G.).T.A.|.-XA.Z.oXZ.L.D.-XP.[.T.L.L.T.K.L.K.K.L.S.:XJ.K.A.L.Z.T.I.T.'.OXL.L.L.P.L.T.T.A.K.-XG.S.oXJ.K.P.$XP.[.OX",
"a ] E.L a s h L h L h s Y s L h g s h ' 9 ] _.Y h s h h s h K h P 7 L L h h h h s ] _./ a h h Y h l s a Y p L s d h h N 9 { I.] ",
"5 s E.h i p r @ r r r r r f i r i p r @ 5 s (.p r r r r r r r i r g r r r d i i 5 s _.p 5 f + @ i r i r i f r r i p r r 5 p _.s ",
"& K B.] # > i h g > g a > = g > i @ g 1 , L G.P i a a > a > i d < , > g , a > > & J D.] > > a h g > g d > % d 1 > = i > a J N.P ",
"d 0 ;Xs 7 f i i a i & d a d g a i d a i % s L.a & i d i a i a i d d a i i i i i i 9 oXa 7 d > & a i 7 d g g s i a g a g # s oXs ",
"r p U.h r d y p r d u d r f = r p y r f r n I.n r r u t y r u r r f r + d r f d = s U.L d y y d r r f d r d r r i y i r r h F.N ",
"h P -XP a K g K L K a h P i L J s h Y a h ] }.P s h K K s K J h L i Y K h L h g g ] }.P , h h J K L s h / i L J J g L h h ( L.( ",
"J.J.J.J.J.J.J.J.L.L.G.G.Y.[.J.T.L.Z.L.L.L.|.L.L.H.H.H.A.H.H.H.H.Y.{.E.G.T.A.L.J.J.J.J.J.J.J.J.J.P.L.Z.G.Y.{.J.T.G.G.J.J.J.J.J.J.",
"h h h h h h h h s s Y J P E.( a h h L h h h h h h h h h h h h h R _.P s g J h h h h h h h h h h s s P s / E.] a h h L h h h h h ",
"i y i y d y d r i r r + h I.L r i d i i d > i d > d i d d i i r s (.h 5 r i i i i y d i i d i d i i r 5 K I.L + d d i d y i i r ",
"i i , a i i a i 7 d c i K L.K = a i i i i i i i i i i i i i i & K ).h & d d < d a i i i i i i i i i c i K L.h > d i i i i a i i ",
"a i i a i i i i i d d d s L.h i i i i d i i i i i i i i d a i i h ).h & d d d d i i i i i i i d 7 d c d J L.K i i d i i i i i a ",
"i = i i i i i i i i r + h ).h = i i i i i > i i i i i i r d i = s U.h # i 7 i r i i i i i i i i i 5 r # K I.k r i i i i i i i = ",
"h h h h h h h h s s Y s P E.] p K h h h h h h h h h h h h h K h ] _.] s h J L h h h h K h h h h s h Y s / E.] a h J K h h h h h ",
"$X}.oXoX$XoX-X-XoXoX}.oXOX=XoX>X}.}.}.-X}.-X-XXXXXXXoXoX}.-X-X XOX&XOXoX>XJ.>XoX-X-X$X$X}.}.oXoXoX;X$XXXOX=XT.>XoX$X}.XX}.XXXXXX"
};
