/* XPM */
static char *wall1687762723[] = {
/* columns rows colors chars-per-pixel */
"64 64 110 2 ",
"   c #2D140C",
".  c #371607",
"X  c #3A1606",
"o  c #34150D",
"O  c #39150C",
"+  c #32190F",
"@  c #3A180C",
"#  c #2C1612",
"$  c #271A14",
"%  c #2B1914",
"&  c #2C1A18",
"*  c #341612",
"=  c #381711",
"-  c #341913",
";  c #3C1D13",
":  c #361F1C",
">  c #3C1E1B",
",  c #35201E",
"<  c #3C201D",
"1  c #3A1F20",
"2  c #382020",
"3  c #461707",
"4  c #471A05",
"5  c #481905",
"6  c #451B0D",
"7  c #4B1909",
"8  c #441B12",
"9  c #4A1C12",
"0  c #421E1A",
"q  c #4C1C18",
"w  c #442417",
"e  c #4C2315",
"r  c #45231B",
"t  c #4A231C",
"y  c #532313",
"u  c #562C16",
"i  c #592B17",
"p  c #5F271A",
"a  c #532E1C",
"s  c #5E2A1D",
"d  c #602B1D",
"f  c #6C2E1F",
"g  c #6D301F",
"h  c #74331F",
"j  c #4D2B24",
"k  c #562E26",
"l  c #5B2D24",
"z  c #552E29",
"x  c #5C2D29",
"c  c #563027",
"v  c #5C3026",
"b  c #563029",
"n  c #5B3029",
"m  c #622E24",
"M  c #6B2F22",
"N  c #612F28",
"B  c #633125",
"V  c #6C3123",
"C  c #623129",
"Z  c #713222",
"A  c #713628",
"S  c #7E4336",
"D  c #77463D",
"F  c #7D453A",
"G  c #74483F",
"H  c #7D493C",
"J  c #7C4A41",
"K  c #89462F",
"L  c #924B2F",
"P  c #844535",
"I  c #894633",
"U  c #864837",
"Y  c #8A4937",
"T  c #824639",
"R  c #83493B",
"E  c #8A4A39",
"W  c #924C33",
"Q  c #904E39",
"!  c #8E503A",
"~  c #844E41",
"^  c #8D5241",
"/  c #8F6151",
"(  c #916656",
")  c #9D6654",
"_  c #9E6A55",
"`  c #936659",
"'  c #9A6759",
"]  c #946959",
"[  c #9E6B59",
"{  c #A56752",
"}  c #A56954",
"|  c #AA6B56",
" . c #A26C59",
".. c #A96D58",
"X. c #B46D52",
"o. c #A3715C",
"O. c #B27256",
"+. c #BD7453",
"@. c #B6765A",
"#. c #B87759",
"$. c #B4785E",
"%. c #BB7959",
"&. c #B27862",
"*. c #AE8776",
"=. c #B78A75",
"-. c #BA8A75",
";. c #B98C79",
":. c #C0886F",
">. c #C28C71",
",. c #D09376",
/* pixels */
"5 5 5 5 5 5 5 5 5 5 4 4 4 4 4 4 4 4 4 4 @ . $   @ 4 4 4 5 5 5 5 5 5 5 5 5 5 5 4 5 5 5 5 5 5 4 4 5 4 6 . 7 5 5 5 5 5 4 5 5 4 5 4 ",
"_ _ _ _ _ [ _ _ _ _ _ _ _ _ _ ) _ _ _ o.=.a   + c ] [ _ [  ._ _ _ _ _ [ _ _ _ _ _ [ _ _ _ _ _ _ _ o.*.e /  ._ _ _ _ _ _ _ _ _ _ ",
"! E E E E ! ! E E E ! ! E ! E E E ! ! ! $.>.a . v ! ! ! E E E E E E ! E E ! ! E E E ^ E E E ! E ! ^ o.4 m ~ ^ E E E ! E E E E ! ",
"I I I I I I I Y U U I I I I I I I I I K L @.=.6 i H T U I I Y I I I I I U I I U I I P I U I I I I ! _ 7 d T Y Y U I I I U I U K ",
"Y Y Y Y Y Y Y Y I E E E I E I E Y I E I I ! o.7 s R E Y Y Y Y Y Y Y Y Y Y Y E Y Y Y Y Y Y Y Y Y U E _ 5 d R E Y E E E I E E I Y ",
"I Y Y Y Y Y Y Y E I I E E E I E E Y Y Y I E } 7 s R U E Y Y Y Y Y Y Y P I P Y Y Y E Y Y Y Y Y E I E } 7 d R Y Y I I E E I E Y E ",
"Y Y Y Y Y Y Y Y E E E I U I E E Y Y E I I ! _ 7 s R E U E Y Y Y E T P M M M I E Y Y Y Y Y Y Y Y I E  .7 d R E I E Y I E Y U Y Y ",
"Y Y Y Y Y Y Y Y E I I E P g U E I E Y I I !  .5 s ~ U E P P E U T M M T T P E E Y Y Y Y Y E Y Y I ! _ 7 d R E E Y Y E I U E Y Y ",
"Y E Y Y Y Y Y I E I E I U M S T E U I Y I E _ 7 l F T F V M V V M T T Y E E I E I Y E Y Y Y Y Y I E } 7 l T Y E Y Y Y Y Y Y Y Y ",
"Y Y Y Y Y E I E E E U E R F C l m T E E U E [ 6 8 C V V F T F T T M P Y E I E Y E Y I Y Y Y Y Y I Y [ 7 d ~ U Y E I Y Y Y Y Y Y ",
"Y Y Y Y Y I M P E E R T x b 0 > 0 n R P V E  .7 9 F R P U E E E U P M S E E I E Y Y E Y E Y Y Y E E _ 7 d U E Y U M P Y E Y Y Y ",
"Y Y Y Y Y Y S V B T R x r > - % > z D A F ~ ] 8 l R E I E I Y I Y P M R E E E E E Y Y Y Y Y Y Y Y ^ ' 6 s J R ~ S M P Y Y Y Y Y ",
"I I Y Y I E E T F C z 0 : % % % % < b F J n r @ l T E E I E I E Y U U E U E E I Y Y E I E E Y Y U ~ ] 8 ; b C F V P Y Y Y Y Y Y ",
"T T R R T T T H x 0 0 > : & $ % $ % 0 b b 0 # # k H R T T E R R R R T T R T T T U R T E T T U T N l r - - : 0 n F ~ R T R R R E ",
"n z z z k z x z 0 > 1 1 2 : & $ # % - : : #   # : j z k k k k k z k k n b n c c c c k k k k k k ; < #     # & > j z l k k k x x ",
"* * * - * * 0 j r t r 0 > 1 1 & % # + ; ; ; < - 8 8 6 8 6 6 8 8 8 8 8 O + - @ 8 6 6 6 6 8 6 6 8 8 @ < - ; ; ; = 8 8 8 6 6 8 8 8 ",
"# # & & # # = ` .. .E R N z > > > 0 B _  .} [ H } } { } { } { } { | :.i o   @ ( ..{ { | { { } { } }  .} } }  .} } } { { | { { { ",
"< < < 1 : - * C Y W X.| F x 0 0 z l U E Y W I h Y W W W W W W W W W @.>.a w O B Y W W W W W W W W W W W W W W W W W W W W W W W ",
"z z z z r : * k T I Q E V m x N F E U P I P M P P I I I I I I I I I W O.,.>.8 k P I I I I I I I I I I I I I I I I I I I I I Y I ",
"x l x x z > * n R Y Y U S N T T V P I E E P M U E Y Y Y I E I E Y I I W +.X.6 k R Y Y Y Y Y Y Y I E E I Y Y I E Y Y Y Y Y Y Y Y ",
"x x x x z 0 * z R E Y I M T R E I Y Y Y P M P Y Y Y Y Y Y Y Y E Y Y Y K W { 6 k R E E T P I Y Y E I I E E E Y Y Y Y Y Y Y Y Y Y ",
"x x x x z > = z T Y I E T Y E Y Y Y Y Y S M T Y E E Y Y I Y Y Y E Y Y I W { 9 k E E P f M P E Y E E U U U E P Y Y Y Y Y Y Y Y Y ",
"x x x x z 0 * b R Y Y Y Y Y Y Y Y Y E T A A M T E I Y Y Y Y Y Y Y Y E I W | 8 k R Y Y P T M T I I E P V V S Z U E Y Y Y Y Y Y Y ",
"x x x x z > * n T Y Y Y Y Y E Y Y Y I P A T M U E I Y Y E Y Y Y Y E I I W { 9 z R Y Y Y I P M T E P V S S V S R E Y Y Y Y Y Y Y ",
"m x x x z 1 = z T Y Y Y Y Y Y Y Y E P f T Y P Y Y Y Y Y Y Y Y Y E U V P W { 6 c R Y Y Y E T M T Y M T Y Y P M T I E Y Y Y Y I Y ",
"x l x x z > O z T Y I Y Y Y Y Y Y Y Y P I Y Y Y Y Y Y Y E Y Y Y I I P g I } 6 c R Y Y Y Y Y T M S M P Y I E T Z T E Y Y Y Y Y Y ",
"x x x x z > * z T E E E Y Y Y Y Y Y Y Y E Y Y Y Y Y E Y Y Y Y Y E Y E U h U 6 k R I Y Y Y Y E P M S Y Y E Y E I Y Y Y Y Y Y Y Y ",
"x x x x z 0 * z ~ Y Y Y Y I Y E E Y Y Y Y Y Y Y Y Y Y Y Y Y Y Y E E I I I ) 8 k ~ Y Y Y Y Y E T M T Y Y E Y Y Y Y Y Y Y Y Y Y Y ",
"m x x x z 1 * z A ^ Y Y Y Y Y I Y Y Y Y Y Y I E Y Y Y Y Y Y U E I E I I W } 6 c ~ ^ Y Y Y Y T M P E E Y Y Y Y Y I Y E I Y Y Y Y ",
"x x N x z 0 * > x ~ T Y E R Y I Y E E T E T E I E R R S T R U E E E E E ! } 8 j C A E T Y ~ T M Y T Y Y Y Y E E E E E Y U R Y Y ",
"x x x x x 0 1 # 1 z x F ~ T T R ~ Y T T ~ T T T T ~ J q t J F T R R R T E ' < - > x F T T T N F T T T ~ T T ~ T ~ ~ R R R R ~ R ",
"p l p x x q > * * 8 8 l l d m d p m m p d d m x l s 8 o o 8 l s s s s s d s . + o 8 l m m p 7 l x l x m l s p p m p d d s s s m ",
"f f M M f M m q 6 6 6 7 7 3 7 7 7 5 7 7 7 7 o @ 6 6 3 3 6 7 7 7 7 7 7 7 5 5 4 6 6 7 4 7 7 4 4 6 . - + + 6 7 7 7 7 7 7 5 7 7 7 5 ",
"| | | | | | ..|  . . .' ' H )  .}  . ._ o.;.j ; ( [  . .} '  . .[ _ [ [  ._ [ _  . ._ _  ._ o.=.a     - `  .} _ _ _  . .} _ _ _ ",
"Y Q Q Q E Q ^ E E ! E R A E E ^ E ! ! E ! &.;.7 V R E ^ E ~ ^ E ! E E ! E E ! ! ! E E ! ! ! ! $.:.u + - B ~ ^ E E E E E ! E ! E ",
"I I Y I Y I I I I U P M P U I Y I U I E K W o.5 s R I I I I I I I I I I I I I U I I I K I I K L %.>.w + l T Y I I I Y Y E P E E ",
"E E I E Y Y Y Y P V V P E Y Y Y I E I E E E } 7 s R E E Y Y Y Y E Y Y E E I E E E Y Y Y E I I W +.,.a O l U E Y E I I E E U T R ",
"I E I E E U I P V T T E E Y Y Y I E I E I E  .7 s R E E Y Y E T Y Y Y E E E E I Y Y Y Y E E I Y W O.=.e s R U Y E E E R T H C l ",
"E I Y Y E P V M S E E I Y Y Y Y E Y E E I E } 7 s ~ E I Y E T M I E E I Y Y Y Y E Y Y Y Y Y Y Y K ! o.7 d R Y Y P T F x x x 0 > ",
"E E E E P V T F M P E E Y Y E Y Y E I I I E _ 7 d R Y Y Y E T M I Y E I Y Y Y Y I Y Y Y Y Y Y Y I E _ 7 d R Y Y P V m q q 0 1 1 ",
"I E P P V S E P V S I I E E Y Y Y Y E Y I E  .7 d R Y Y E P M T E I E E I E U I I E I E E Y Y Y I E } 7 s ~ R Y Y P M m x q > > ",
"E P V M P E Y E S V U E I E Y Y Y E Y Y I ! } 7 d R Y Y Y P M T E I E I E U g P E E I E Y Y Y Y I E [ 7 d R E Y E E U R F N x x ",
"F V P P U Y Y U E U E Y E Y E Y Y Y Y Y P ! _ 4 s R E Y P Z P Y E E E I I E P M S S E I I Y Y Y I E } 7 d R Y Y Y Y Y Y U T R R ",
"M F E E E Y Y E I E Y Y I E I Y Y Y Y Y U ! ] 6 l R U E U P I Y I I E E I I E P V g P E E E I Y I ^  .7 l T U E Y Y Y Y Y Y Y Y ",
"P E E I Y E E I I E Y Y I E E I E E E E F k r - k R E E Y Y Y Y E E E I E I P E U P Z P I I E Y Y ^ ` 6 m U E Y I E Y Y Y E Y Y ",
"R T T T T T R T F E R R E T T E T T T F C r # # 0 v F R R T R T H E R T R R R E T H H T R R T P R F t @ k F R R R R R T R R R R ",
"z b z z z k z n k k k k c c k k c k k k j > # $ # : k k z k l k c k k k c b b z c c z k c n v k k k - - : k z k k k x l k l x k ",
"- - * - - - - - = ; 8 8 8 @ 8 8 8 8 8 8 6 ; ; ; 8 = 8 8 6 6 6 6 6 6 6 8 8 O o = @ 8 8 8 6 8 6 6 8 8 0 = 8 8 6 6 8 6 8 8 6 6 8 8 ",
"# # # & # $ #   r ` } } ) g ) } } { } { { } } } }  .} } | } { | { | { ..:.i o - e ' | { { { { { { {  .} } } { { { | { { { | { { ",
"r r r > < # $ - w V Y W ! U Z Y W W W W W W W W W W W W W W W W W W W W @.>.= - H E W W W W W W W W W W W W W W W W W W W W W W ",
" .} } H n < - > l T I I I P g I I K I K Y I I I I I I I I I I I I I I K W ..8 k R E I I I I I I I I I I I I I K I I I K I I I I ",
"W W W | J 8 * z H E E E I E T M U Y E Y Y Y Y Y E E I E Y Y I Y E I E I W } 8 k F E Y Y Y Y E E E I E I E I E Y I E Y E U I Y E ",
"I I I !  .e o k ~ E E Y E E T M U Y I E E E Y Y I E Y Y P E Y Y I I E I W | 8 k T Y Y Y E E I I E I E Y Y Y E Y Y E E U g V P E ",
"Y Y I E  .y O c T Y Y Y E P M S E Y E I Y I Y E I E Y P Z P E Y E E I I W { 8 l R Y Y Y I E E E Y Y Y Y Y Y Y Y E I E E U S M F ",
"Y I E I Q ) 8 k R I Y Y Y Y S V U Y Y Y I Y I E I E U M P I E Y Y Y E I W { 9 z R I Y Y I E E E E Y Y Y Y Y E Y I Y Y Y E E P M ",
"I E E I W } 6 k R Y I T E T V J U U U Y Y Y E E Y E F M P E Y Y Y E I I W { 9 k R E E E M U Y E Y Y Y Y Y Y I E Y Y I E P Y E U ",
"I Y Y I W { 6 k R E P M S m l F V U E E E I E I Y P Z T U Y E Y Y Y Y I L { 9 k T E E S M S E I Y Y E Y Y Y Y Y Y Y Y Y Y Y Y E ",
"Y Y Y I W { 6 k R Y Y T N q q x H E U I E E E E Y Y P R Y Y Y Y I Y E I W } 6 c F E T V S V P I Y Y Y Y Y Y Y Y Y Y Y I Y Y E E ",
"Y Y Y I W { 6 l R Y Y R S x 0 8 B E U U E E I I Y Y E Y Y Y Y Y E Y Y I W { 8 k H R S M P P f P Y Y Y Y E Y Y Y Y Y Y E I E I E ",
"Y Y Y Y W { 6 k R Y Y P V F n q d S U U I E E E E E Y Y Y Y Y Y E Y Y I W { 0 ; x N M T E E I U Y Y Y Y Y Y Y Y Y Y E E E E I E ",
"Y Y Y Y W } 8 k R E E I U R F C F V I E I I I I Y Y Y E E I E Y E I Y I W  .; # 0 n R E T I Y I E Y Y E I Y Y E Y Y Y Y E I Y Y ",
"T T E T E ' 0 k H R T F ~ F C F H F T T ~ ~ T T T R T ~ T E R R T H E S E [ < # > z J R T ~ T T R T ~ T T T R R R R T R T T R ~ ",
"k k k k k k * : z b k k k r z b z z l k z l x k k k x z k k k k c c k k c c % # % < k k x x l k k k x z k k z l z k k z k z x k ",
"* * * - * * - & - - - * - - - * * * * * * * * * * * * * * * * * * * - - @ + $ $ $ % - * * * * * * * * * * * * * * * * * * * * * "
};
